<svg xmlns="http://www.w3.org/2000/svg" viewBox="0 0 750 500">
  <path fill="#ebebeb" d="M266.64 187.52v116.54h215.42v-73.74h-18.68v22.69h-4.82v-12.84H434.8v20.34h-3.15v-62.37H411v27.73h-10.59v16.31h-3.21v-10.26h-18.77v30.6h-5.49v-24.87h-17.18v-18.9h-11.67v-10.76h-13.51v47.73h-4.54v-52.48h-22.25v28.51h-3.08v-23.27h-22.56v-20.96h-11.51z"/>
  <path fill="#fff" d="M479.77 237.52h-3.16v-4.34h3.16zM474.29 237.52h-3.16v-4.34h3.16zM468.81 237.52h-3.16v-4.34h3.16zM479.77 244.04h-3.16v-4.34h3.16zM474.29 244.04h-3.16v-4.34h3.16zM468.81 244.04h-3.16v-4.34h3.16zM479.77 250.57h-3.16v-4.34h3.16zM474.29 250.57h-3.16v-4.34h3.16zM468.81 250.57h-3.16v-4.34h3.16zM479.77 257.1h-3.16v-4.34h3.16zM474.29 257.1h-3.16v-4.34h3.16zM468.81 257.1h-3.16v-4.34h3.16zM370.3 244.36h-3.16v-3.62h3.16zM364.82 244.36h-3.16v-3.62h3.16zM359.33 244.36h-3.16v-3.62h3.16zM370.3 249.82h-3.16v-3.62h3.16zM364.82 249.82h-3.16v-3.62h3.16zM359.33 249.82h-3.16v-3.62h3.16zM370.3 255.26h-3.16v-3.62h3.16zM364.82 255.26h-3.16v-3.62h3.16zM359.33 255.26h-3.16v-3.62h3.16zM370.3 260.7h-3.16v-3.62h3.16zM364.82 260.7h-3.16v-3.62h3.16zM359.33 260.7h-3.16v-3.62h3.16zM370.3 266.29h-3.16v-3.62h3.16zM364.82 266.29h-3.16v-3.62h3.16zM359.33 266.29h-3.16v-3.62h3.16zM370.3 271.87h-3.16v-3.62h3.16zM364.82 271.87h-3.16v-3.62h3.16zM359.33 271.87h-3.16v-3.62h3.16zM370.3 277.45h-3.16v-3.62h3.16zM364.82 277.45h-3.16v-3.62h3.16zM359.33 277.45h-3.16v-3.62h3.16zM370.3 283.04h-3.16v-3.62h3.16zM364.82 283.04h-3.16v-3.62h3.16zM359.33 283.04h-3.16v-3.62h3.16zM455.87 245.66h-18.2v-2.71h18.2zM455.87 250.93h-18.2v-2.71h18.2zM455.87 256.19h-18.2v-2.71h18.2zM455.87 261.46h-18.2v-2.71h18.2zM455.87 266.73h-18.2v-2.71h18.2zM455.87 271.99h-18.2v-2.71h18.2zM455.87 277.26h-18.2v-2.71h18.2zM455.87 282.52h-18.2v-2.71h18.2zM323.35 208.49h-16.74v-2.71h16.74zM323.35 213.75h-16.74v-2.71h16.74zM323.35 219.02h-16.74v-2.71h16.74zM323.35 224.28h-16.74v-2.71h16.74zM306.61 226.84h16.74v2.71h-16.74zM323.35 234.82h-16.74v-2.71h16.74zM323.35 240.08h-16.74v-2.71h16.74zM323.35 245.35h-16.74v-2.71h16.74zM323.35 250.35h-16.74v-2.71h16.74zM323.35 255.35h-16.74v-2.71h16.74zM323.35 260.36h-16.74v-2.71h16.74zM323.35 265.36h-16.74v-2.71h16.74zM297.24 214.85h-17.68v-2.71h17.68zM297.24 220.11h-17.68v-2.71h17.68zM297.24 225.38h-17.68v-2.71h17.68zM297.24 230.64h-17.68v-2.71h17.68zM297.24 235.91h-17.68v-2.71h17.68zM297.24 241.18h-17.68v-2.71h17.68zM297.24 246.44h-17.68v-2.71h17.68zM297.24 251.71h-17.68V249h17.68zM297.24 256.42h-17.68v-2.71h17.68zM297.24 261.13h-17.68v-2.71h17.68zM297.24 265.85h-17.68v-2.71h17.68zM391.71 237h-5.62v-2.62h5.62zM391.71 242.09h-5.62v-2.62h5.62zM391.71 247.17h-5.62v-2.62h5.62zM391.71 252.26h-5.62v-2.62h5.62zM391.71 257.34h-5.62v-2.62h5.62zM391.71 262.43h-5.62v-2.62h5.62zM391.71 267.51h-5.62v-2.62h5.62zM391.71 272.6h-5.62v-2.62h5.62zM384.06 237h-5.62v-2.62h5.62zM384.06 242.09h-5.62v-2.62h5.62zM384.06 247.17h-5.62v-2.62h5.62zM384.06 252.26h-5.62v-2.62h5.62zM384.06 257.34h-5.62v-2.62h5.62zM384.06 262.43h-5.62v-2.62h5.62zM384.06 267.51h-5.62v-2.62h5.62zM384.06 272.6h-5.62v-2.62h5.62zM428.52 205.3h-5.86v-4.13h5.86zM419.8 205.3h-5.86v-4.13h5.86zM428.52 211.37h-5.86v-4.13h5.86zM419.8 211.37h-5.86v-4.13h5.86zM428.52 217.45h-5.86v-4.13h5.86zM419.8 217.45h-5.86v-4.13h5.86zM428.52 223.52h-5.86v-4.13h5.86zM419.8 223.52h-5.86v-4.13h5.86zM428.52 229.59h-5.86v-4.13h5.86zM419.8 229.59h-5.86v-4.13h5.86zM408.97 231.79h-5.86v-4.13h5.86zM408.97 237.86h-5.86v-4.13h5.86zM408.97 243.93h-5.86v-4.13h5.86zM408.97 250h-5.86v-4.13h5.86zM408.97 256.08h-5.86v-4.13h5.86zM408.97 262.15h-5.86v-4.13h5.86zM428.52 235.59h-5.86v-4.13h5.86zM419.8 235.59h-5.86v-4.13h5.86zM408.97 268.15h-5.86v-4.13h5.86zM428.52 241.59h-5.86v-4.13h5.86zM419.8 241.59h-5.86v-4.13h5.86zM408.97 274.14h-5.86v-4.13h5.86zM428.52 247.58h-5.86v-4.13h5.86zM419.8 247.58h-5.86v-4.13h5.86zM408.97 280.14h-5.86v-4.13h5.86zM428.52 253.58h-5.86v-4.13h5.86zM419.8 253.58h-5.86v-4.13h5.86zM428.52 259.58h-5.86v-4.13h5.86zM419.8 259.58h-5.86v-4.13h5.86zM353.38 225.04h-3.16v-3.62h3.16zM347.89 225.04h-3.16v-3.62h3.16zM353.38 230.48h-3.16v-3.62h3.16zM347.89 230.48h-3.16v-3.62h3.16zM353.38 235.92h-3.16v-3.62h3.16zM347.89 235.92h-3.16v-3.62h3.16zM353.38 241.38h-3.16v-3.62h3.16zM347.89 241.38h-3.16v-3.62h3.16zM353.38 246.96h-3.16v-3.62h3.16zM347.89 246.96h-3.16v-3.62h3.16zM353.38 252.53h-3.16v-3.62h3.16zM347.89 252.53h-3.16v-3.62h3.16zM353.38 258.12h-3.16v-3.62h3.16zM347.89 258.12h-3.16v-3.62h3.16zM353.38 263.7h-3.16v-3.62h3.16zM347.89 263.7h-3.16v-3.62h3.16zM353.38 269.34h-3.16v-3.62h3.16zM347.89 269.34h-3.16v-3.62h3.16zM353.38 274.98h-3.16v-3.62h3.16zM347.89 274.98h-3.16v-3.62h3.16zM353.38 280.63h-3.16v-3.62h3.16zM347.89 280.63h-3.16v-3.62h3.16zM276.17 193.71h-3.16v-4.27h3.16zM270.69 193.71h-3.16v-4.27h3.16zM276.17 200.12h-3.16v-4.26h3.16zM270.69 200.12h-3.16v-4.26h3.16zM276.17 206.54h-3.16v-4.26h3.16zM270.69 206.54h-3.16v-4.26h3.16zM276.17 212.96h-3.16v-4.26h3.16zM270.69 212.96h-3.16v-4.26h3.16zM276.17 219.53h-3.16v-4.27h3.16zM270.69 219.53h-3.16v-4.27h3.16zM276.17 226.11h-3.16v-4.26h3.16zM270.69 226.11h-3.16v-4.26h3.16zM276.17 232.69h-3.16v-4.26h3.16zM270.69 232.69h-3.16v-4.26h3.16zM276.17 239.26h-3.16V235h3.16zM270.69 239.26h-3.16V235h3.16zM276.17 245.91h-3.16v-4.26h3.16zM270.69 245.91h-3.16v-4.26h3.16zM276.17 252.55h-3.16v-4.26h3.16zM270.69 252.55h-3.16v-4.26h3.16zM276.17 259.2h-3.16v-4.26h3.16zM270.69 259.2h-3.16v-4.26h3.16zM276.17 265.85h-3.16v-4.26h3.16zM270.69 265.85h-3.16v-4.26h3.16zM341.66 225.04h-3.16v-3.62h3.16zM336.17 225.04h-3.16v-3.62h3.16zM341.66 219.45h-3.16v-3.62h3.16zM336.17 219.45h-3.16v-3.62h3.16zM341.66 213.87h-3.16v-3.62h3.16zM336.17 213.87h-3.16v-3.62h3.16zM341.66 230.48h-3.16v-3.62h3.16zM336.17 230.48h-3.16v-3.62h3.16zM341.66 235.92h-3.16v-3.62h3.16zM336.17 235.92h-3.16v-3.62h3.16zM341.66 241.38h-3.16v-3.62h3.16zM336.17 241.38h-3.16v-3.62h3.16zM341.66 246.96h-3.16v-3.62h3.16zM336.17 246.96h-3.16v-3.62h3.16zM341.66 252.53h-3.16v-3.62h3.16zM336.17 252.53h-3.16v-3.62h3.16zM341.66 258.12h-3.16v-3.62h3.16zM336.17 258.12h-3.16v-3.62h3.16zM341.66 263.7h-3.16v-3.62h3.16zM336.17 263.7h-3.16v-3.62h3.16zM341.66 269.34h-3.16v-3.62h3.16zM336.17 269.34h-3.16v-3.62h3.16zM341.66 274.98h-3.16v-3.62h3.16zM336.17 274.98h-3.16v-3.62h3.16zM341.66 280.63h-3.16v-3.62h3.16zM336.17 280.63h-3.16v-3.62h3.16z"/>
  <path fill="#ebebeb" d="M51.22 187.52v116.54h215.42v-73.74h-18.69v22.69h-4.81v-12.84h-23.76v20.34h-3.15v-80.3h-20.65v45.66h-10.59v16.31h-3.21v-10.26H163v30.6h-5.49v-24.87h-17.17v-18.9h-11.67v-10.76h-13.51v47.73h-4.55v-52.48H88.37v28.51h-3.08v-23.27H62.73v-20.96H51.22z"/>
  <path fill="#fff" d="M264.35 237.52h-3.16v-4.34h3.16zM258.87 237.52h-3.16v-4.34h3.16zM253.39 237.52h-3.16v-4.34h3.16zM264.35 244.04h-3.16v-4.34h3.16zM258.87 244.04h-3.16v-4.34h3.16zM253.39 244.04h-3.16v-4.34h3.16zM264.35 250.57h-3.16v-4.34h3.16zM258.87 250.57h-3.16v-4.34h3.16zM253.39 250.57h-3.16v-4.34h3.16zM264.35 257.1h-3.16v-4.34h3.16zM258.87 257.1h-3.16v-4.34h3.16zM253.39 257.1h-3.16v-4.34h3.16zM154.87 244.36h-3.16v-3.62h3.16zM149.4 244.36h-3.16v-3.62h3.16zM143.92 244.36h-3.16v-3.62h3.16zM154.87 249.82h-3.16v-3.62h3.16zM149.4 249.82h-3.16v-3.62h3.16zM143.92 249.82h-3.16v-3.62h3.16zM154.87 255.26h-3.16v-3.62h3.16zM149.4 255.26h-3.16v-3.62h3.16zM143.92 255.26h-3.16v-3.62h3.16zM154.87 260.7h-3.16v-3.62h3.16zM149.4 260.7h-3.16v-3.62h3.16zM143.92 260.7h-3.16v-3.62h3.16zM154.87 266.29h-3.16v-3.62h3.16zM149.4 266.29h-3.16v-3.62h3.16zM143.92 266.29h-3.16v-3.62h3.16zM154.87 271.87h-3.16v-3.62h3.16zM149.4 271.87h-3.16v-3.62h3.16zM143.92 271.87h-3.16v-3.62h3.16zM154.87 277.45h-3.16v-3.62h3.16zM149.4 277.45h-3.16v-3.62h3.16zM143.92 277.45h-3.16v-3.62h3.16zM154.87 283.04h-3.16v-3.62h3.16zM149.4 283.04h-3.16v-3.62h3.16zM143.92 283.04h-3.16v-3.62h3.16zM240.44 245.66h-18.2v-2.71h18.2zM240.44 250.93h-18.2v-2.71h18.2zM240.44 256.19h-18.2v-2.71h18.2zM240.44 261.46h-18.2v-2.71h18.2zM240.44 266.73h-18.2v-2.71h18.2zM240.44 271.99h-18.2v-2.71h18.2zM240.44 277.26h-18.2v-2.71h18.2zM240.44 282.52h-18.2v-2.71h18.2zM107.93 208.49H91.19v-2.71h16.74zM107.93 213.75H91.19v-2.71h16.74zM107.93 219.02H91.19v-2.71h16.74zM107.93 224.28H91.19v-2.71h16.74zM91.19 226.84h16.74v2.71H91.19zM107.93 234.82H91.19v-2.71h16.74zM107.93 240.08H91.19v-2.71h16.74zM107.93 245.35H91.19v-2.71h16.74zM107.93 250.35H91.19v-2.71h16.74zM107.93 255.35H91.19v-2.71h16.74zM107.93 260.36H91.19v-2.71h16.74zM107.93 265.36H91.19v-2.71h16.74zM81.81 214.85H64.13v-2.71h17.68zM81.81 220.11H64.13v-2.71h17.68zM81.81 225.38H64.13v-2.71h17.68zM81.81 230.64H64.13v-2.71h17.68zM81.81 235.91H64.13v-2.71h17.68zM81.81 241.18H64.13v-2.71h17.68zM81.81 246.44H64.13v-2.71h17.68zM81.81 251.71H64.13V249h17.68zM81.81 256.42H64.13v-2.71h17.68zM81.81 261.13H64.13v-2.71h17.68zM81.81 265.85H64.13v-2.71h17.68zM176.29 237h-5.62v-2.62h5.62zM176.29 242.09h-5.62v-2.62h5.62zM176.29 247.17h-5.62v-2.62h5.62zM176.29 252.26h-5.62v-2.62h5.62zM176.29 257.34h-5.62v-2.62h5.62zM176.29 262.43h-5.62v-2.62h5.62zM176.29 267.51h-5.62v-2.62h5.62zM176.29 272.6h-5.62v-2.62h5.62zM168.64 237h-5.62v-2.62h5.62zM168.64 242.09h-5.62v-2.62h5.62zM168.64 247.17h-5.62v-2.62h5.62zM168.64 252.26h-5.62v-2.62h5.62zM168.64 257.34h-5.62v-2.62h5.62zM168.64 262.43h-5.62v-2.62h5.62zM168.64 267.51h-5.62v-2.62h5.62zM168.64 272.6h-5.62v-2.62h5.62zM213.1 187.09h-5.86v-4.13h5.86zM204.37 187.09h-5.86v-4.13h5.86zM213.1 193.15h-5.86v-4.13h5.86zM204.37 193.15h-5.86v-4.13h5.86zM213.1 199.23h-5.86v-4.13h5.86zM204.37 199.23h-5.86v-4.13h5.86zM213.1 205.3h-5.86v-4.13h5.86zM204.37 205.3h-5.86v-4.13h5.86zM213.1 211.37h-5.86v-4.13h5.86zM204.37 211.37h-5.86v-4.13h5.86zM213.1 217.45h-5.86v-4.13h5.86zM204.37 217.45h-5.86v-4.13h5.86zM213.1 223.52h-5.86v-4.13h5.86zM204.37 223.52h-5.86v-4.13h5.86zM213.1 229.59h-5.86v-4.13h5.86zM204.37 229.59h-5.86v-4.13h5.86zM193.55 231.79h-5.86v-4.13h5.86zM193.55 237.86h-5.86v-4.13h5.86zM193.55 243.93h-5.86v-4.13h5.86zM193.55 250h-5.86v-4.13h5.86zM193.55 256.08h-5.86v-4.13h5.86zM193.55 262.15h-5.86v-4.13h5.86zM213.1 235.59h-5.86v-4.13h5.86zM204.37 235.59h-5.86v-4.13h5.86zM193.55 268.15h-5.86v-4.13h5.86zM213.1 241.59h-5.86v-4.13h5.86zM204.37 241.59h-5.86v-4.13h5.86zM193.55 274.14h-5.86v-4.13h5.86zM213.1 247.58h-5.86v-4.13h5.86zM204.37 247.58h-5.86v-4.13h5.86zM193.55 280.14h-5.86v-4.13h5.86zM213.1 253.58h-5.86v-4.13h5.86zM204.37 253.58h-5.86v-4.13h5.86zM213.1 259.58h-5.86v-4.13h5.86zM204.37 259.58h-5.86v-4.13h5.86zM137.96 225.04h-3.16v-3.62h3.16zM132.48 225.04h-3.16v-3.62h3.16zM137.96 230.48h-3.16v-3.62h3.16zM132.48 230.48h-3.16v-3.62h3.16zM137.96 235.92h-3.16v-3.62h3.16zM132.48 235.92h-3.16v-3.62h3.16zM137.96 241.38h-3.16v-3.62h3.16zM132.48 241.38h-3.16v-3.62h3.16zM137.96 246.96h-3.16v-3.62h3.16zM132.48 246.96h-3.16v-3.62h3.16zM137.96 252.53h-3.16v-3.62h3.16zM132.48 252.53h-3.16v-3.62h3.16zM137.96 258.12h-3.16v-3.62h3.16zM132.48 258.12h-3.16v-3.62h3.16zM137.96 263.7h-3.16v-3.62h3.16zM132.48 263.7h-3.16v-3.62h3.16zM137.96 269.34h-3.16v-3.62h3.16zM132.48 269.34h-3.16v-3.62h3.16zM137.96 274.98h-3.16v-3.62h3.16zM132.48 274.98h-3.16v-3.62h3.16zM137.96 280.63h-3.16v-3.62h3.16zM132.48 280.63h-3.16v-3.62h3.16zM60.75 193.71h-3.16v-4.27h3.16zM55.27 193.71h-3.16v-4.27h3.16zM60.75 200.12h-3.16v-4.26h3.16zM55.27 200.12h-3.16v-4.26h3.16zM60.75 206.54h-3.16v-4.26h3.16zM55.27 206.54h-3.16v-4.26h3.16zM60.75 212.96h-3.16v-4.26h3.16zM55.27 212.96h-3.16v-4.26h3.16zM60.75 219.53h-3.16v-4.27h3.16zM55.27 219.53h-3.16v-4.27h3.16zM60.75 226.11h-3.16v-4.26h3.16zM55.27 226.11h-3.16v-4.26h3.16zM60.75 232.69h-3.16v-4.26h3.16zM55.27 232.69h-3.16v-4.26h3.16zM60.75 239.26h-3.16V235h3.16zM55.27 239.26h-3.16V235h3.16zM60.75 245.91h-3.16v-4.26h3.16zM55.27 245.91h-3.16v-4.26h3.16zM60.75 252.55h-3.16v-4.26h3.16zM55.27 252.55h-3.16v-4.26h3.16zM60.75 259.2h-3.16v-4.26h3.16zM55.27 259.2h-3.16v-4.26h3.16zM60.75 265.85h-3.16v-4.26h3.16zM55.27 265.85h-3.16v-4.26h3.16zM126.24 225.04h-3.16v-3.62h3.16zM120.76 225.04h-3.16v-3.62h3.16zM126.24 219.45h-3.16v-3.62h3.16zM120.76 219.45h-3.16v-3.62h3.16zM126.24 213.87h-3.16v-3.62h3.16zM120.76 213.87h-3.16v-3.62h3.16zM126.24 230.48h-3.16v-3.62h3.16zM120.76 230.48h-3.16v-3.62h3.16zM126.24 235.92h-3.16v-3.62h3.16zM120.76 235.92h-3.16v-3.62h3.16zM126.24 241.38h-3.16v-3.62h3.16zM120.76 241.38h-3.16v-3.62h3.16zM126.24 246.96h-3.16v-3.62h3.16zM120.76 246.96h-3.16v-3.62h3.16zM126.24 252.53h-3.16v-3.62h3.16zM120.76 252.53h-3.16v-3.62h3.16zM126.24 258.12h-3.16v-3.62h3.16zM120.76 258.12h-3.16v-3.62h3.16zM126.24 263.7h-3.16v-3.62h3.16zM120.76 263.7h-3.16v-3.62h3.16zM126.24 269.34h-3.16v-3.62h3.16zM120.76 269.34h-3.16v-3.62h3.16zM126.24 274.98h-3.16v-3.62h3.16zM120.76 274.98h-3.16v-3.62h3.16zM126.24 280.63h-3.16v-3.62h3.16zM120.76 280.63h-3.16v-3.62h3.16z"/>
  <path fill="#ebebeb" d="M482.17 200.33v103.73h216.61v-73.74h-18.69v22.69h-4.81v-12.84h-23.76v20.34h-3.15v-73.9h-20.65v39.26h-10.59v16.31h-3.21v-10.26h-18.78v30.6h-5.48v-24.87h-17.18v-18.9h-11.67v-10.76H547.3v47.73h-4.55v-52.48h-22.24v28.51h-3.08v-23.27h-22.56v-8.15h-12.7z"/>
  <path fill="#fff" d="M696.49 237.52h-3.16v-4.34h3.16zM691.01 237.52h-3.16v-4.34h3.16zM685.53 237.52h-3.16v-4.34h3.16zM696.49 244.04h-3.16v-4.34h3.16zM691.01 244.04h-3.16v-4.34h3.16zM685.53 244.04h-3.16v-4.34h3.16zM696.49 250.57h-3.16v-4.34h3.16zM691.01 250.57h-3.16v-4.34h3.16zM685.53 250.57h-3.16v-4.34h3.16zM696.49 257.1h-3.16v-4.34h3.16zM691.01 257.1h-3.16v-4.34h3.16zM685.53 257.1h-3.16v-4.34h3.16zM587.01 244.36h-3.16v-3.62h3.16zM581.53 244.36h-3.16v-3.62h3.16zM576.06 244.36h-3.16v-3.62h3.16zM587.01 249.82h-3.16v-3.62h3.16zM581.53 249.82h-3.16v-3.62h3.16zM576.06 249.82h-3.16v-3.62h3.16zM587.01 255.26h-3.16v-3.62h3.16zM581.53 255.26h-3.16v-3.62h3.16zM576.06 255.26h-3.16v-3.62h3.16zM587.01 260.7h-3.16v-3.62h3.16zM581.53 260.7h-3.16v-3.62h3.16zM576.06 260.7h-3.16v-3.62h3.16zM587.01 266.29h-3.16v-3.62h3.16zM581.53 266.29h-3.16v-3.62h3.16zM576.06 266.29h-3.16v-3.62h3.16zM587.01 271.87h-3.16v-3.62h3.16zM581.53 271.87h-3.16v-3.62h3.16zM576.06 271.87h-3.16v-3.62h3.16zM587.01 277.45h-3.16v-3.62h3.16zM581.53 277.45h-3.16v-3.62h3.16zM576.06 277.45h-3.16v-3.62h3.16zM587.01 283.04h-3.16v-3.62h3.16zM581.53 283.04h-3.16v-3.62h3.16zM576.06 283.04h-3.16v-3.62h3.16zM672.59 245.66h-18.2v-2.71h18.2zM672.59 250.93h-18.2v-2.71h18.2zM672.59 256.19h-18.2v-2.71h18.2zM672.59 261.46h-18.2v-2.71h18.2zM672.59 266.73h-18.2v-2.71h18.2zM672.59 271.99h-18.2v-2.71h18.2zM672.59 277.26h-18.2v-2.71h18.2zM672.59 282.52h-18.2v-2.71h18.2zM540.07 208.49h-16.74v-2.71h16.74zM540.07 213.75h-16.74v-2.71h16.74zM540.07 219.02h-16.74v-2.71h16.74zM540.07 224.28h-16.74v-2.71h16.74zM523.33 226.84h16.74v2.71h-16.74zM540.07 234.82h-16.74v-2.71h16.74zM540.07 240.08h-16.74v-2.71h16.74zM540.07 245.35h-16.74v-2.71h16.74zM540.07 250.35h-16.74v-2.71h16.74zM540.07 255.35h-16.74v-2.71h16.74zM540.07 260.36h-16.74v-2.71h16.74zM540.07 265.36h-16.74v-2.71h16.74zM513.95 214.85h-17.68v-2.71h17.68zM513.95 220.11h-17.68v-2.71h17.68zM513.95 225.38h-17.68v-2.71h17.68zM513.95 230.64h-17.68v-2.71h17.68zM513.95 235.91h-17.68v-2.71h17.68zM513.95 241.18h-17.68v-2.71h17.68zM513.95 246.44h-17.68v-2.71h17.68zM513.95 251.71h-17.68V249h17.68zM513.95 256.42h-17.68v-2.71h17.68zM513.95 261.13h-17.68v-2.71h17.68zM513.95 265.85h-17.68v-2.71h17.68zM608.43 237h-5.62v-2.62h5.62zM608.43 242.09h-5.62v-2.62h5.62zM608.43 247.17h-5.62v-2.62h5.62zM608.43 252.26h-5.62v-2.62h5.62zM608.43 257.34h-5.62v-2.62h5.62zM608.43 262.43h-5.62v-2.62h5.62zM608.43 267.51h-5.62v-2.62h5.62zM608.43 272.6h-5.62v-2.62h5.62zM600.78 237h-5.62v-2.62h5.62zM600.78 242.09h-5.62v-2.62h5.62zM600.78 247.17h-5.62v-2.62h5.62zM600.78 252.26h-5.62v-2.62h5.62zM600.78 257.34h-5.62v-2.62h5.62zM600.78 262.43h-5.62v-2.62h5.62zM600.78 267.51h-5.62v-2.62h5.62zM600.78 272.6h-5.62v-2.62h5.62zM645.24 193.15h-5.86v-4.13h5.86zM636.51 193.15h-5.86v-4.13h5.86zM645.24 199.23h-5.86v-4.13h5.86zM636.51 199.23h-5.86v-4.13h5.86zM645.24 205.3h-5.86v-4.13h5.86zM636.51 205.3h-5.86v-4.13h5.86zM645.24 211.37h-5.86v-4.13h5.86zM636.51 211.37h-5.86v-4.13h5.86zM645.24 217.45h-5.86v-4.13h5.86zM636.51 217.45h-5.86v-4.13h5.86zM645.24 223.52h-5.86v-4.13h5.86zM636.51 223.52h-5.86v-4.13h5.86zM645.24 229.59h-5.86v-4.13h5.86zM636.51 229.59h-5.86v-4.13h5.86zM625.69 231.79h-5.86v-4.13h5.86zM625.69 237.86h-5.86v-4.13h5.86zM625.69 243.93h-5.86v-4.13h5.86zM625.69 250h-5.86v-4.13h5.86zM625.69 256.08h-5.86v-4.13h5.86zM625.69 262.15h-5.86v-4.13h5.86zM645.24 235.59h-5.86v-4.13h5.86zM636.51 235.59h-5.86v-4.13h5.86zM625.69 268.15h-5.86v-4.13h5.86zM645.24 241.59h-5.86v-4.13h5.86zM636.51 241.59h-5.86v-4.13h5.86zM625.69 274.14h-5.86v-4.13h5.86zM645.24 247.58h-5.86v-4.13h5.86zM636.51 247.58h-5.86v-4.13h5.86zM625.69 280.14h-5.86v-4.13h5.86zM645.24 253.58h-5.86v-4.13h5.86zM636.51 253.58h-5.86v-4.13h5.86zM645.24 259.58h-5.86v-4.13h5.86zM636.51 259.58h-5.86v-4.13h5.86zM570.09 225.04h-3.16v-3.62h3.16zM564.62 225.04h-3.16v-3.62h3.16zM570.09 230.48h-3.16v-3.62h3.16zM564.62 230.48h-3.16v-3.62h3.16zM570.09 235.92h-3.16v-3.62h3.16zM564.62 235.92h-3.16v-3.62h3.16zM570.09 241.38h-3.16v-3.62h3.16zM564.62 241.38h-3.16v-3.62h3.16zM570.09 246.96h-3.16v-3.62h3.16zM564.62 246.96h-3.16v-3.62h3.16zM570.09 252.53h-3.16v-3.62h3.16zM564.62 252.53h-3.16v-3.62h3.16zM570.09 258.12h-3.16v-3.62h3.16zM564.62 258.12h-3.16v-3.62h3.16zM570.09 263.7h-3.16v-3.62h3.16zM564.62 263.7h-3.16v-3.62h3.16zM570.09 269.34h-3.16v-3.62h3.16zM564.62 269.34h-3.16v-3.62h3.16zM570.09 274.98h-3.16v-3.62h3.16zM564.62 274.98h-3.16v-3.62h3.16zM570.09 280.63h-3.16v-3.62h3.16zM564.62 280.63h-3.16v-3.62h3.16zM492.89 206.54h-3.16v-4.26h3.16zM487.41 206.54h-3.16v-4.26h3.16zM492.89 212.96h-3.16v-4.26h3.16zM487.41 212.96h-3.16v-4.26h3.16zM492.89 219.53h-3.16v-4.27h3.16zM487.41 219.53h-3.16v-4.27h3.16zM492.89 226.11h-3.16v-4.26h3.16zM487.41 226.11h-3.16v-4.26h3.16zM492.89 232.69h-3.16v-4.26h3.16zM487.41 232.69h-3.16v-4.26h3.16zM492.89 239.26h-3.16V235h3.16zM487.41 239.26h-3.16V235h3.16zM492.89 245.91h-3.16v-4.26h3.16zM487.41 245.91h-3.16v-4.26h3.16zM492.89 252.55h-3.16v-4.26h3.16zM487.41 252.55h-3.16v-4.26h3.16zM492.89 259.2h-3.16v-4.26h3.16zM487.41 259.2h-3.16v-4.26h3.16zM492.89 265.85h-3.16v-4.26h3.16zM487.41 265.85h-3.16v-4.26h3.16zM558.37 225.04h-3.16v-3.62h3.16zM552.9 225.04h-3.16v-3.62h3.16zM558.37 219.45h-3.16v-3.62h3.16zM552.9 219.45h-3.16v-3.62h3.16zM558.37 213.87h-3.16v-3.62h3.16zM552.9 213.87h-3.16v-3.62h3.16zM558.37 230.48h-3.16v-3.62h3.16zM552.9 230.48h-3.16v-3.62h3.16zM558.37 235.92h-3.16v-3.62h3.16zM552.9 235.92h-3.16v-3.62h3.16zM558.37 241.38h-3.16v-3.62h3.16zM552.9 241.38h-3.16v-3.62h3.16zM558.37 246.96h-3.16v-3.62h3.16zM552.9 246.96h-3.16v-3.62h3.16zM558.37 252.53h-3.16v-3.62h3.16zM552.9 252.53h-3.16v-3.62h3.16zM558.37 258.12h-3.16v-3.62h3.16zM552.9 258.12h-3.16v-3.62h3.16zM558.37 263.7h-3.16v-3.62h3.16zM552.9 263.7h-3.16v-3.62h3.16zM558.37 269.34h-3.16v-3.62h3.16zM552.9 269.34h-3.16v-3.62h3.16zM558.37 274.98h-3.16v-3.62h3.16zM552.9 274.98h-3.16v-3.62h3.16zM558.37 280.63h-3.16v-3.62h3.16zM552.9 280.63h-3.16v-3.62h3.16z"/>
  <path d="M556.05 94.05h-81.62s8.1-22.11 20.55-22.11 16.36 15.26 16.36 15.26 8.4-8.29 15.3-8.29 12.91 11 12.91 11 9.75-5.91 16.5 4.14z" fill="#ebebeb"/>
  <path d="M288.56 106.4h-38.14s8.52-12.35 15.24-12.35 8.7 8.23 8.7 8.23 4.74-3.84 9.13-3.16 5.07 7.28 5.07 7.28zM132.75 99.93H80.42S92.11 83 101.33 83s11.93 11.29 11.93 11.29 6.5-5.29 12.52-4.29 6.97 9.93 6.97 9.93zM669.58 142.93h-38.14s8.52-12.35 15.23-12.35 8.7 8.23 8.7 8.23 4.74-3.84 9.13-3.16 5.08 7.28 5.08 7.28z" fill="#ebebeb" opacity=".5"/>
  <path d="M217.85 147.63h-74.29s10.17-22.72 21.05-24.13 16.09 16.87 16.09 16.87 7-6.46 12.54-6.46 9.78 8.51 9.78 8.51 11.04-5.83 14.83 5.21z" fill="#ebebeb"/>
  <path d="M440.16 146.11H390s8.62-16.45 18-16.69 14.27 12.45 14.27 12.45 14.5-11.67 17.89 4.24z" fill="#ebebeb" opacity=".5"/>
  <g>
    <ellipse cx="375" cy="416.92" rx="288.38" ry="37.35" fill="#ebebeb"/>
  </g>
  <g>
    <path fill="#c7c7c7" d="M47.51 304.04h654.98v10.58H47.51z"/>
    <path d="M81.21 304a28.23 28.23 0 010 10.58 24.37 24.37 0 01-.5-5.29 25 25 0 01.5-5.29zM120.38 304a25 25 0 01.5 5.29 24.37 24.37 0 01-.5 5.29 25 25 0 01-.5-5.29 25.62 25.62 0 01.5-5.29zM159.55 304a28.23 28.23 0 010 10.58 28.23 28.23 0 010-10.58zM198.73 304a28.8 28.8 0 010 10.58 28.23 28.23 0 010-10.58zM237.9 304a28.23 28.23 0 010 10.58 28.23 28.23 0 010-10.58zM277.07 304a25.62 25.62 0 01.5 5.29 25 25 0 01-.5 5.29 24.37 24.37 0 01-.5-5.29 25.62 25.62 0 01.5-5.29zM316.24 304a25 25 0 01.5 5.29 24.37 24.37 0 01-.5 5.29 28.23 28.23 0 010-10.58zM355.41 304a28.23 28.23 0 010 10.58 28.23 28.23 0 010-10.58zM394.59 304a28.23 28.23 0 010 10.58 28.23 28.23 0 010-10.58zM433.76 304a28.23 28.23 0 010 10.58 24.37 24.37 0 01-.5-5.29 25 25 0 01.5-5.29zM472.93 304a25.62 25.62 0 01.5 5.29 24.37 24.37 0 01-.5 5.29 25 25 0 01-.5-5.29 25.62 25.62 0 01.5-5.29zM512.1 304a28.23 28.23 0 010 10.58 28.23 28.23 0 010-10.58zM551.28 304a28.8 28.8 0 010 10.58 28.23 28.23 0 010-10.58zM590.45 304a28.23 28.23 0 010 10.58 28.23 28.23 0 010-10.58zM629.62 304a25.62 25.62 0 01.5 5.29 25 25 0 01-.5 5.29 24.37 24.37 0 01-.5-5.29 25 25 0 01.5-5.29zM668.79 304a25 25 0 01.5 5.29 24.37 24.37 0 01-.5 5.29 28.23 28.23 0 010-10.58z" fill="#263238"/>
    <path fill="#263238" d="M41.23 314.62l83.45-.25 83.44-.08 166.88-.17 166.88.17 83.44.08 83.44.25-83.44.24-83.44.09-166.88.17-166.88-.17-83.44-.09-83.45-.24z"/>
  </g>
  <g>
    <path d="M83.7 220.5s22.6 50.19-14.29 50.24-13-51.92-13-51.92-8.54-3.74 1.33-31.77S72 159 76.12 159c5.2 0 10 12.12 6.52 30.74 0 .02 13.01 23.26 1.06 30.76z" fill="#37474f"/>
    <path fill="#263238" d="M66.17 304.04l3.48-75.65 3.63 75.64-7.11.01z"/>
    <path fill="#263238" d="M68.23 260.11l13.4-15.68-10.5 17.75-2.9-2.07z"/>
    <path d="M87.72 225.93s-10.53-4.16-18.86 10.38c-8.55 14.91 2.2 24.71 10.71 18.86 0 0 6.69 14 20.05 10.66s15.52-14 15.52-14 11.85.82 12.18-8-8.32-16.76-8.32-16.76-.53-22-14.89-21.86-16.39 20.72-16.39 20.72z" fill="#455a64"/>
    <path fill="#263238" d="M97.57 304.04l2.94-65.6 3.08 65.6h-6.02z"/>
    <path fill="#263238" d="M99.64 263.1l-9.24-18.39 10.76 15.51-1.52 2.88z"/>
    <path d="M694.36 220.5s22.6 50.19-14.29 50.24-13-51.92-13-51.92-8.54-3.74 1.33-31.77 14.31-28 18.42-28c5.2 0 10.05 12.12 6.53 30.74-.04-.03 12.96 23.21 1.01 30.71z" fill="#37474f"/>
    <path fill="#263238" d="M676.84 304.04l3.47-75.65 3.64 75.64-7.11.01z"/>
    <path fill="#263238" d="M678.9 260.11l13.39-15.68-10.5 17.75-2.89-2.07z"/>
    <path d="M167.08 230.9s-19.7 44 12.62 44 11.3-45.53 11.3-45.53 7.48-3.3-1.23-27.82S177.21 177 173.61 177c-4.56 0-8.78 10.63-5.66 26.93.05.07-11.35 20.39-.87 26.97z" fill="#37474f"/>
    <path fill="#263238" d="M182.6 304.04l-3.19-66.26-3.04 66.26h6.23z"/>
    <path fill="#263238" d="M180.71 265.56l-11.76-13.71 9.23 15.52 2.53-1.81z"/>
    <path d="M627.92 225.93s-10.52-4.16-18.86 10.38c-8.54 14.91 2.2 24.71 10.71 18.86 0 0 6.7 14 20.06 10.66s15.51-14 15.51-14 11.86.82 12.18-8-8.36-16.69-8.36-16.69-.53-22-14.89-21.86-16.35 20.65-16.35 20.65z" fill="#455a64"/>
    <path fill="#263238" d="M637.78 304.04l2.93-65.6 3.08 65.6h-6.01z"/>
    <path fill="#263238" d="M639.81 263.02l-9.2-18.31 11.02 15.48-1.82 2.83z"/>
  </g>
  <g>
    <path d="M232.88 256.85l.69-2.38s-8.81-9.45-11.34-10.61-18 1.75-18.87 3.12-.51 7.33-.3 8.38 14 3.41 16.32 3.51 13.5-2.02 13.5-2.02z" fill="#ffc100"/>
    <path d="M233.57 254.47l-.69 2.38s5.86 4.43 6.08 4.69-.14 1.52-.14 1.52h5.94v-8.59a13.94 13.94 0 01-2.78 1.19c-.85.15-8.41-1.19-8.41-1.19z" fill="#ffc100"/>
    <g opacity=".1">
      <path d="M232.88 256.85l.69-2.38s-8.81-9.45-11.34-10.61-18 1.75-18.87 3.12-.51 7.33-.3 8.38 14 3.41 16.32 3.51 13.5-2.02 13.5-2.02z"/>
      <path d="M233.57 254.47l-.69 2.38s5.86 4.43 6.08 4.69-.14 1.52-.14 1.52h5.94v-8.59a13.94 13.94 0 01-2.78 1.19c-.85.15-8.41-1.19-8.41-1.19z"/>
    </g>
    <path d="M342.47 347.7c.63 23 9.75 51.12 30.09 51.12 2 0 29.22.52 31-.07 16.39-5.44 26.1-35.33 24.26-61.68-1.44-20.52-8-43.51-25.1-46.27-1.14-.18-29.78 0-31 0-20.55 0-29.94 32.2-29.25 56.9z" fill="#263238"/>
    <path d="M375.1 347.7c.64 23 9.76 51.12 30.09 51.12s29.64-32.54 27.59-61.75c-1.53-21.89-8.59-46.27-28.45-46.27-20.52 0-29.91 32.2-29.23 56.9z" fill="#37474f"/>
    <path d="M383.57 347c.52 17.68 7.32 39.37 22.35 39.37s21.83-25.06 20.26-47.55c-1.18-16.86-6.45-35.63-21.13-35.63-15.17.03-22.05 24.81-21.48 43.81z" fill="#c7c7c7"/>
    <path d="M409.86 307c-.31 7.19-1.39 30.08-2.95 30.08-1.32 0-5.17-21.61-6.53-29.42a11.43 11.43 0 015.31-1.31 13.35 13.35 0 014.17.65zM404.09 338.48c-.83.62-8.19-9.7-13.54-17.44a32.59 32.59 0 014.82-9c3.47 8.85 9.85 25.6 8.72 26.44zM402.7 341.14c-.38.94-8.29-2.68-15.42-6.16a70 70 0 011.61-8.56c6.53 6.05 14.27 13.58 13.81 14.72zM402 344.37c.07 1.08-7.94 2.6-15.21 3.76l-.06-1.27c-.07-2.3 0-4.68.13-7.1 7.24 1.5 15.01 3.4 15.14 4.61zM389 363.11a71.17 71.17 0 01-1.84-9.78c7-3.24 15.12-6.73 15.73-5.61s-7.79 9.51-13.89 15.39zM397.66 379.56a27.47 27.47 0 01-6.44-9.86c4.48-7.65 12.15-20.33 13.34-19.52s-4.95 22.65-6.9 29.38zM413.35 381a11.14 11.14 0 01-6.68 2.24 11.85 11.85 0 01-2.76-.31c.24-6 1.34-30.91 3-30.91 1.27-.02 5.02 20.83 6.44 28.98zM422 366.46a37.56 37.56 0 01-4.07 9.44c-3.48-8.91-9.08-23.75-8-24.55.76-.57 6.98 7.89 12.07 15.11zM424.42 353.33a73.76 73.76 0 01-1.12 7.83c-5.7-5.38-11.56-11.26-11.14-12.3.32-.86 6.2 1.65 12.26 4.47zM424.7 341.74c.1 2.42.11 4.86 0 7.28-6-1.27-11.67-2.74-11.74-3.79s5.68-2.3 11.74-3.49zM424.39 337.13c-5.85 2.78-11.71 5.25-12.22 4.28s5.56-7.66 10.93-13.27a81.4 81.4 0 011.29 8.99zM421.42 321.62c-4.33 7.48-10.41 17.54-11.47 16.81s3.71-19.53 5.82-27.4a29.22 29.22 0 015.65 10.59zM112.22 347.7c.63 23 9.75 51.12 30.09 51.12 2 0 29.22.52 31-.07 16.39-5.44 26.1-35.33 24.26-61.68-1.44-20.52-8-43.51-25.1-46.27-1.14-.18-29.78 0-31 0-20.55 0-29.93 32.2-29.25 56.9z" fill="#263238"/>
    <path d="M144.86 347.7c.63 23 9.75 51.12 30.08 51.12s29.64-32.54 27.6-61.75c-1.54-21.89-8.6-46.27-28.45-46.27-20.53 0-29.92 32.2-29.23 56.9z" fill="#37474f"/>
    <path d="M153.32 347c.52 17.68 7.32 39.37 22.35 39.37s21.83-25.06 20.26-47.55c-1.18-16.86-6.45-35.63-21.13-35.63-15.17.03-22.04 24.81-21.48 43.81z" fill="#c7c7c7"/>
    <path d="M179.61 307c-.31 7.19-1.39 30.08-3 30.08-1.32 0-5.17-21.61-6.53-29.42a11.43 11.43 0 015.31-1.31 13.3 13.3 0 014.22.65zM173.84 338.48c-.83.62-8.19-9.7-13.54-17.44a32.85 32.85 0 014.82-9c3.47 8.85 9.88 25.6 8.72 26.44zM172.45 341.14c-.38.94-8.29-2.68-15.42-6.16a70 70 0 011.61-8.56c6.53 6.05 14.27 13.58 13.81 14.72zM171.71 344.37c.07 1.08-7.94 2.6-15.21 3.76 0-.43 0-.84-.05-1.27-.08-2.3 0-4.68.12-7.1 7.28 1.5 15.05 3.4 15.14 4.61zM158.76 363.11a71.17 71.17 0 01-1.84-9.78c7-3.24 15.12-6.73 15.73-5.61s-7.8 9.51-13.89 15.39zM167.41 379.56a27.47 27.47 0 01-6.41-9.86c4.48-7.65 12.15-20.33 13.34-19.52s-4.98 22.65-6.93 29.38zM183.1 381a11.14 11.14 0 01-6.68 2.24 11.85 11.85 0 01-2.76-.31c.24-6 1.34-30.91 3-30.91 1.27-.02 5.02 20.83 6.44 28.98zM191.76 366.46a37.56 37.56 0 01-4.07 9.44c-3.48-8.91-9.08-23.75-8-24.55.75-.57 6.97 7.89 12.07 15.11zM194.17 353.33a73.76 73.76 0 01-1.12 7.83c-5.7-5.38-11.55-11.26-11.14-12.3.32-.86 6.2 1.65 12.26 4.47zM194.45 341.74c.1 2.42.11 4.86 0 7.28-6-1.27-11.67-2.74-11.74-3.79s5.68-2.3 11.74-3.49zM194.14 337.13c-5.85 2.78-11.71 5.25-12.22 4.28s5.56-7.66 10.93-13.27a81.4 81.4 0 011.29 8.99zM191.17 321.62c-4.33 7.48-10.41 17.54-11.47 16.81s3.71-19.53 5.82-27.4a29.22 29.22 0 015.65 10.59zM551.93 347.7c.63 23 9.75 51.12 30.09 51.12 2 0 29.22.52 31-.07 16.39-5.44 26.1-35.33 24.26-61.68-1.44-20.52-8-43.51-25.1-46.27-1.14-.18-29.78 0-31 0-20.55 0-29.93 32.2-29.25 56.9z" fill="#263238"/>
    <path d="M584.57 347.7c.63 23 9.75 51.12 30.08 51.12s29.64-32.54 27.6-61.75c-1.54-21.89-8.6-46.27-28.45-46.27-20.53 0-29.92 32.2-29.23 56.9z" fill="#37474f"/>
    <path d="M593 347c.52 17.68 7.32 39.37 22.35 39.37s21.83-25.06 20.26-47.55c-1.18-16.86-6.45-35.63-21.13-35.63-15.14.03-22.01 24.81-21.48 43.81z" fill="#c7c7c7"/>
    <path d="M619.32 307c-.31 7.19-1.39 30.08-3 30.08-1.32 0-5.17-21.61-6.53-29.42a11.44 11.44 0 015.32-1.31 13.28 13.28 0 014.21.65zM613.55 338.48c-.83.62-8.19-9.7-13.54-17.44a33.12 33.12 0 014.82-9c3.47 8.85 9.85 25.6 8.72 26.44zM612.16 341.14c-.37.94-8.29-2.68-15.42-6.16a70 70 0 011.61-8.56c6.53 6.05 14.27 13.58 13.81 14.72zM611.42 344.37c.07 1.08-7.94 2.6-15.21 3.76 0-.43 0-.84-.05-1.27-.08-2.3 0-4.68.12-7.1 7.28 1.5 15.05 3.4 15.14 4.61zM598.47 363.11a71.17 71.17 0 01-1.84-9.78c7-3.24 15.12-6.73 15.73-5.61s-7.8 9.51-13.89 15.39zM607.12 379.56a27.47 27.47 0 01-6.44-9.86c4.48-7.65 12.15-20.33 13.34-19.52s-4.95 22.65-6.9 29.38zM622.81 381a11.14 11.14 0 01-6.68 2.24 11.85 11.85 0 01-2.76-.31c.24-6 1.34-30.91 3-30.91 1.27-.02 5.02 20.83 6.44 28.98zM631.47 366.46a37.56 37.56 0 01-4.07 9.44c-3.48-8.91-9.08-23.75-8-24.55.76-.57 6.97 7.89 12.07 15.11zM633.88 353.33a71.27 71.27 0 01-1.12 7.83c-5.7-5.38-11.55-11.26-11.14-12.3.32-.86 6.2 1.65 12.26 4.47zM634.16 341.74c.1 2.42.11 4.86 0 7.28-6-1.27-11.67-2.74-11.74-3.79s5.68-2.3 11.74-3.49zM633.85 337.13c-5.85 2.78-11.71 5.25-12.22 4.28s5.56-7.66 10.93-13.27a81.4 81.4 0 011.29 8.99zM630.88 321.62c-4.33 7.48-10.41 17.54-11.47 16.81s3.71-19.53 5.82-27.4a29.22 29.22 0 015.65 10.59z" fill="#263238"/>
    <path d="M433.06 381.91h137.11s12.53-20.4 13.24-23.63-2.39-68.19 31.17-68.19c29.24 0 27.94 65.22 27.94 65.22l3.58-5.48.81-9.53-2.28-5.64s4.29-40 2.28-45.51-19.87-28.59-21.08-29.8-20.94-4.57-22.28-5.77-56.55-46.72-81.08-52.09-78.18-9.66-112.61-9.66-113.19 9.3-119.63 11.45-65.51 57.63-65.51 57.63-63 8.1-71.42 10-40.54 23.23-41.88 25.91-5.51 32.62-5.51 32.62-3.22 7.39-3.35 9.13 3.89 30.21 4.43 31.68 6.44 8.19 7.78 8.73 224.92 3.49 227.66 3 15.63-4.29 17.78-5.73S366.5 290.8 405 290.8c33.43 0 30.75 64.13 28.06 91.11z" fill="#ffc100"/>
    <path d="M246 381.06c-61.74-.78-130.48-1.81-131.23-2.1-1.34-.54-7.25-7.25-7.78-8.72s-4.57-29.94-4.42-31.68 3.34-9.14 3.34-9.14 4.16-29.94 5.5-32.62 33.43-24 41.89-25.9 71.42-10 71.42-10-57 12.75-60 15.3-25 26.6-27.56 30.17-2.94 30.6-3.75 32.83-6.18 16.21-6.72 18.62 1.88 12.09 2.68 12.88 111.45 9.94 116.63 10.36zM433.05 381.91c2.46-24.49 4.88-79.59-19.71-89.54 12.56 2.28 30.1 22.87 30.82 76.66l126 12.88z" opacity=".1"/>
    <g opacity=".6" fill="#fff">
      <path d="M566.94 347.14a152.63 152.63 0 018.3-38.12 87.34 87.34 0 013.86-9 64.79 64.79 0 015-8.47 42.91 42.91 0 016.45-7.47 36.21 36.21 0 013.86-3.11 30.3 30.3 0 014.36-2.4 25.18 25.18 0 019.65-2.28 23.42 23.42 0 019.8 1.48c6.28 2.43 11.06 7.54 14.44 13.11a72.38 72.38 0 017.53 18.07 113.93 113.93 0 013.52 19.21 114.37 114.37 0 00-4.09-19.05 72.16 72.16 0 00-7.75-17.74c-3.45-5.37-8.07-10.37-14.07-12.59a22.15 22.15 0 00-9.34-1.36 24.29 24.29 0 00-9.22 2.23 29.84 29.84 0 00-4.19 2.28 36.85 36.85 0 00-3.75 3 42 42 0 00-6.31 7.25 80.63 80.63 0 00-8.89 17.18 141.73 141.73 0 00-5.66 18.64 170.61 170.61 0 00-3.5 19.14zM359 347.14a153 153 0 018-37.29 81.14 81.14 0 018.38-17.22 52.56 52.56 0 016.06-7.51 35.56 35.56 0 017.74-5.81 29.24 29.24 0 019.26-2.91 28.58 28.58 0 019.67.56c6.37 1.5 11.85 5.59 15.86 10.58a61.48 61.48 0 019.3 16.71 96.08 96.08 0 014.89 18.44 95.52 95.52 0 00-5.45-18.22 60.8 60.8 0 00-9.46-16.34c-4-4.78-9.29-8.71-15.4-10.1a27.51 27.51 0 00-9.27-.48 28.64 28.64 0 00-8.84 2.82 35.06 35.06 0 00-7.49 5.57 51 51 0 00-5.95 7.3 85.17 85.17 0 00-8.43 16.93 145.71 145.71 0 00-5.46 18.22 167.8 167.8 0 00-3.41 18.75zM434.94 299.72c8.75-2.53 17.48-5.14 26.25-7.6l49-4.67 49-4.35h-.06l16-5.54 16.08-5.45-16 5.77-16 5.69h-.06l-49 4.64-49 4.34c-8.61 2.45-17.42 4.77-26.21 7.17zM231.71 260.94l-26.6 11.35-26.64 11.27.13-.11-10.6 19.91-.26-.43c25.68.23 51.37.33 77 .67h-.18l30.6-18 38.14-11.35 38.17-11.22-37.97 11.66-38.09 11.49h.07L245 304.28l-.09.05h-.1c-25.68-.15-51.36-.54-77-.81h-.49l.23-.42 10.7-19.87v-.08h.08L205 272z"/>
    </g>
    <g opacity=".3">
      <path d="M229.73 260.91l-53.68 12.76-6.7 1.64c-1.11.27-2.21.58-3.32.87l-.77.26a2 2 0 00-.37.14l-.29.25a11.79 11.79 0 00-1.15 1.18c-3 3.44-5.73 7.15-8.54 10.78-5.56 7.33-11 14.72-16.51 22.11 5.23-7.57 10.54-15.08 16-22.48 2.74-3.7 5.48-7.38 8.5-10.9a10 10 0 011.25-1.29l.37-.3a2.56 2.56 0 01.43-.17l.86-.3c1.11-.3 2.23-.63 3.34-.9l6.7-1.68q13.42-3.17 26.89-6.17t26.99-5.8zM402.93 263.06l-16.33 5.15-16.36 5.06-32.66 10.27c-5.45 1.71-10.9 3.41-16.29 5.25a50.73 50.73 0 00-7.74 3.52l-7.64 3.87-15.26 7.75-15.32 7.64 15.14-8 15.21-7.88 7.6-3.93a49.64 49.64 0 017.79-3.61c5.4-1.89 10.83-3.64 16.27-5.38l32.74-10 16.4-4.92zM444.16 364.83l15.76-.34 15.77-.22 31.52-.48 31.53-.3 15.76-.24 3.94-.07 2-.07c.31 0 .68 0 .94-.07s.5-.34.74-.54c1.74-1.95 3.29-4.09 4.85-6.2-1.51 2.15-3 4.32-4.71 6.33-.24.21-.41.56-.79.62a7.64 7.64 0 01-1 .1l-2 .12-3.94.17-15.76.39-31.53.56-31.53.21-15.76.09z"/>
      <path d="M554.68 259.23q2.49 12 4.86 24v.11l-3.15 19-3.23 19q-3.24 19-6.81 38c1.94-12.72 3.94-25.43 6.08-38.12l3.21-19 3.3-19v.1q-2.19-11.99-4.26-24.09zM467.7 260.82q-3 15.81-6.11 31.58v-.06q-.19 17.21-.53 34.41l-.37 17.25-.51 17.2v-17.21l.15-17.21q.18-17.21.54-34.41v-.07q3.33-15.78 6.83-31.48zM585.59 251.34c1.13 3.41 2.15 6.85 3.18 10.29s2 6.9 2.88 10.38V272.18c-.56 2.54-1.1 5.07-1.71 7.59s-1.2 5-1.87 7.55c.4-2.57.85-5.12 1.33-7.67s1-5.08 1.5-7.62v.18c-1-3.45-1.88-6.93-2.81-10.39s-1.74-6.97-2.5-10.48z"/>
      <path d="M441.29 322.69l16.28-1.24 16.28-1.11 32.57-2.22 32.58-1.95 16.3-.98 16.3-.84-16.28 1.24-16.28 1.11-32.57 2.22-32.58 1.96-16.29.97-16.31.84zM534.14 264c.32 1.32.58 2.66.88 4l-.22-.17c2.54-.29 5.09-.6 7.64-.83s5.09-.49 7.65-.68l-.33.45-.77-3.68.35.25c-2.82.17-5.65.34-8.48.4 2.8-.42 5.61-.74 8.43-1.05h.28l.06.29.85 3.66.1.41h-.43c-2.55.27-5.1.48-7.65.67s-5.11.35-7.67.51h-.19v-.18c-.18-1.34-.36-2.69-.5-4.05zM120 318.52c-1 5.29-2.26 10.51-3.49 15.73l-.5 2-.12.48-.06.24c0 .12 0 0-.1 0 0 .29.05.67.07 1 .1 1.36.24 2.71.31 4.08.18 2.73.34 5.46.4 8.15-.4-2.66-.7-5.29-1-7.91-.15-1.3-.25-2.63-.37-3.94l-.09-1a1.24 1.24 0 010-.52l.06-.24.11-.5.46-2c1.38-5.23 2.71-10.44 4.32-15.57zM320.3 318.52c1.08 2.67 2 5.37 3 8.07s1.88 5.43 2.72 8.17V334.88c0 2.05 0 4.09-.11 6.13s-.14 4.09-.27 6.13c-.14-2-.22-4.08-.28-6.13s-.08-4.08-.1-6.13v.12c-.95-2.71-1.77-5.46-2.65-8.19s-1.61-5.5-2.31-8.29z"/>
      <path d="M102.63 339.76l15.17 15.08h-.08l54.28 1.77c9 .29 18.08.67 27.12.89l27.14-.06 108.57.26 22.05-5.34-22 5.61-108.58.26-27.14-.05c-9.05-.26-18.09-.67-27.13-1l-54.24-2.13h-.06z"/>
    </g>
    <path d="M481.57 258.77c1.79 1.83 72.49-2.33 74.1-2.51s28.64-5.37 29.89-6.62-43-33.11-46.72-34.73-44.7-4.29-50.34-2c-4.41 1.78-8.99 43.75-6.93 45.86z" fill="#263238"/>
    <path d="M486.16 256.83c1.64 1.67 66.23-2.13 67.7-2.29s26.17-4.91 27.31-6-39.24-30.26-42.68-31.73-40.84-3.93-46-1.84c-4.02 1.58-8.21 39.93-6.33 41.86z" fill="#37474f"/>
    <g opacity=".1" fill="#fff">
      <path d="M531 215.61l-44.76 27.52c.77-8.08 2.21-17.79 3.84-23.47l8.94-5.49a292.78 292.78 0 0131.98 1.44zM566.06 236.08l-31.85 19.59c-5.82.31-12.32.63-18.62.9l42.65-26.23c2.63 1.9 5.29 3.85 7.82 5.74zM579.15 246.28l-7.82 4.81c-1.87.41-3.84.82-5.77 1.22l12-7.37c.59.49 1.13.94 1.59 1.34z"/>
    </g>
    <path d="M535.44 216.13c1.26.2 15.88 37.93 15.6 38.67s2.89.13 2.62-.06-16-36.58-15.54-38.11c.24-.81-2.68-.5-2.68-.5zM229.73 260.91c1.79 0 168.83 2.15 173.2 2.15s64.63-2.91 65.37-3.31 6.64-44.16 4.85-47.73c-.49-1-81.44-5.16-91.37-5.16s-91.37 3.55-95.67 4.3-59.34 49.71-56.38 49.75z" fill="#263238"/>
    <path d="M234.93 258.8c1.68 0 158.65 2 162.75 2s62.41-2.73 63.1-3.11 4.63-39.08 2.94-42.43c-.46-.92-78.2-4.85-87.53-4.85s-85.86 3.33-89.9 4-54.14 44.36-51.36 44.39z" fill="#37474f"/>
    <path d="M353.67 211.15l-78.31 48.16c-14.44-.17-26.54-.33-33.64-.42l75-46.14c12.09-.56 25.7-1.15 36.95-1.6zm50.53.39L325.48 260l16.82.21 77.76-47.82zm31 47.64c7.22-.35 14-.7 18.76-1l7.54-4.64c.36-2.84.81-6.89 1.22-11.3zm8.58-45.51l-76.1 46.8h3.71l75.83-46.63zm-143.06-.14l-53.41 32.84c-2.93 2.64-5.55 5-7.62 7l65.17-40.07z" fill="#fff" opacity=".1"/>
    <path d="M295.78 304.59c-2.34 2.33 1.79 16.82 5.37 17.9s28.1-2.33 30.78-3.05 30.25-8.95 32.58-11.45 4.47-23.09 2-24.52-43.86 9.3-48.33 10.56-20.43 8.59-22.4 10.56zM109.4 312c1 1.86 7.66 8.77 9 9.72s9.4 2.3 10.34 1.77 6-11.68 5.9-13.56-10.73-22.26-12.64-21.85-12.08 6.71-12.62 8.72-1.01 13.2.02 15.2z" fill="#fff"/>
    <path d="M110 311.37c-.1 1.34 3.46 5.49 3.89 6a37.73 37.73 0 01-4.49-5.36c-1-2-.55-13.21 0-15.21s10.74-8.33 12.61-8.74c-2 .91-10.17 7.56-10.61 9.21s-1.29 12.67-1.4 14.1z" fill="#dbdbdb"/>
    <path d="M138.4 310.9c2.36-.82 50.88-2.28 60.41-2.28s72.22 1.47 76.52 2.95-5.37 27-9.13 28.86-64.17 6.71-68.33 6.71-51.32-6.66-54.14-8.54-9.22-26.36-5.33-27.7z" fill="#263238"/>
    <path d="M273.28 327.28c-.2.52-.39 1-.6 1.55L139 326.41c-.14-.52-.25-1.05-.37-1.59z" fill="#ffc100"/>
    <path d="M144.84 369h126.33c2.68 0-11-8.18-13.17-8.32s-101.21 0-103.22 0-12.22 8.32-9.94 8.32z" fill="#263238"/>
    <path d="M112.85 363.61c1.36.23 15.39.5 17.72 0s7.7-12.76 7.34-14.59-10.79-8-12.13-8.46-10.8-.94-11.81 0-2.38 22.85-1.12 23.05zM294.52 347.14c-1.67 2.17 9.85 15.26 14.23 16.87S340 365.67 341 365.4s1-13.74.49-15.8-5.55-9.57-6.66-10.24-25.2 1.38-28.46 2.23-11.09 4.57-11.85 5.55z" fill="#455a64"/>
    <path d="M492.29 254.61l-.7-2.38s8.82-9.45 11.34-10.61 18 1.75 18.88 3.12.51 7.33.3 8.38-14 3.41-16.33 3.51-13.49-2.02-13.49-2.02zM491.59 252.23l.7 2.38s-5.87 4.43-6.08 4.69.14 1.52.14 1.52h-6v-8.59a14.22 14.22 0 002.78 1.19c.87.15 8.46-1.19 8.46-1.19z" fill="#ffc100"/>
  </g>
</svg>