<svg xmlns="http://www.w3.org/2000/svg" viewBox="0 0 750 500"><g id="freepik--background-complete--inject-43"><polygon points="266.64 187.52 266.64 304.06 482.06 304.06 482.06 230.32 463.38 230.32 463.38 253.01 458.56 253.01 458.56 240.17 434.8 240.17 434.8 260.51 431.65 260.51 431.65 198.14 411 198.14 411 225.87 400.41 225.87 400.41 242.18 397.2 242.18 397.2 231.92 378.43 231.92 378.43 262.52 372.94 262.52 372.94 237.65 355.76 237.65 355.76 218.75 344.09 218.75 344.09 207.99 330.58 207.99 330.58 255.72 326.04 255.72 326.04 203.24 303.79 203.24 303.79 231.75 300.71 231.75 300.71 208.48 278.15 208.48 278.15 187.52 266.64 187.52" style="fill:#ebebeb"></polygon><rect x="476.61" y="233.17" width="3.16" height="4.34" transform="translate(956.38 470.69) rotate(180)" style="fill:#fff"></rect><rect x="471.13" y="233.17" width="3.16" height="4.34" transform="translate(945.42 470.69) rotate(180)" style="fill:#fff"></rect><rect x="465.65" y="233.17" width="3.16" height="4.34" transform="translate(934.46 470.69) rotate(180)" style="fill:#fff"></rect><rect x="476.61" y="239.7" width="3.16" height="4.34" transform="translate(956.38 483.74) rotate(180)" style="fill:#fff"></rect><rect x="471.13" y="239.7" width="3.16" height="4.34" transform="translate(945.42 483.74) rotate(180)" style="fill:#fff"></rect><rect x="465.65" y="239.7" width="3.16" height="4.34" transform="translate(934.46 483.74) rotate(180)" style="fill:#fff"></rect><rect x="476.61" y="246.23" width="3.16" height="4.34" transform="translate(956.38 496.8) rotate(180)" style="fill:#fff"></rect><rect x="471.13" y="246.23" width="3.16" height="4.34" transform="translate(945.42 496.8) rotate(180)" style="fill:#fff"></rect><rect x="465.65" y="246.23" width="3.16" height="4.34" transform="translate(934.46 496.8) rotate(180)" style="fill:#fff"></rect><rect x="476.61" y="252.76" width="3.16" height="4.34" transform="translate(956.38 509.86) rotate(180)" style="fill:#fff"></rect><rect x="471.13" y="252.76" width="3.16" height="4.34" transform="translate(945.42 509.86) rotate(180)" style="fill:#fff"></rect><rect x="465.65" y="252.76" width="3.16" height="4.34" transform="translate(934.46 509.86) rotate(180)" style="fill:#fff"></rect><rect x="367.14" y="240.75" width="3.16" height="3.62" transform="translate(737.44 485.11) rotate(180)" style="fill:#fff"></rect><rect x="361.66" y="240.75" width="3.16" height="3.62" transform="translate(726.48 485.11) rotate(180)" style="fill:#fff"></rect><rect x="356.18" y="240.75" width="3.16" height="3.62" transform="translate(715.51 485.11) rotate(180)" style="fill:#fff"></rect><rect x="367.14" y="246.19" width="3.16" height="3.62" transform="translate(737.44 496.01) rotate(180)" style="fill:#fff"></rect><rect x="361.66" y="246.19" width="3.16" height="3.62" transform="translate(726.48 496.01) rotate(180)" style="fill:#fff"></rect><rect x="356.18" y="246.19" width="3.16" height="3.62" transform="translate(715.51 496.01) rotate(180)" style="fill:#fff"></rect><rect x="367.14" y="251.64" width="3.16" height="3.62" transform="translate(737.44 506.9) rotate(180)" style="fill:#fff"></rect><rect x="361.66" y="251.64" width="3.16" height="3.62" transform="translate(726.48 506.9) rotate(180)" style="fill:#fff"></rect><rect x="356.18" y="251.64" width="3.16" height="3.62" transform="translate(715.51 506.9) rotate(180)" style="fill:#fff"></rect><rect x="367.14" y="257.09" width="3.16" height="3.62" transform="translate(737.44 517.79) rotate(180)" style="fill:#fff"></rect><rect x="361.66" y="257.09" width="3.16" height="3.62" transform="translate(726.48 517.79) rotate(180)" style="fill:#fff"></rect><rect x="356.18" y="257.09" width="3.16" height="3.62" transform="translate(715.51 517.79) rotate(180)" style="fill:#fff"></rect><rect x="367.14" y="262.67" width="3.16" height="3.62" transform="translate(737.44 528.96) rotate(180)" style="fill:#fff"></rect><rect x="361.66" y="262.67" width="3.16" height="3.62" transform="translate(726.48 528.96) rotate(180)" style="fill:#fff"></rect><rect x="356.18" y="262.67" width="3.16" height="3.62" transform="translate(715.51 528.96) rotate(180)" style="fill:#fff"></rect><rect x="367.14" y="268.25" width="3.16" height="3.62" transform="translate(737.44 540.12) rotate(180)" style="fill:#fff"></rect><rect x="361.66" y="268.25" width="3.16" height="3.62" transform="translate(726.48 540.12) rotate(180)" style="fill:#fff"></rect><rect x="356.18" y="268.25" width="3.16" height="3.62" transform="translate(715.51 540.12) rotate(180)" style="fill:#fff"></rect><rect x="367.14" y="273.83" width="3.16" height="3.62" transform="translate(737.44 551.28) rotate(180)" style="fill:#fff"></rect><rect x="361.66" y="273.83" width="3.16" height="3.62" transform="translate(726.48 551.28) rotate(180)" style="fill:#fff"></rect><rect x="356.18" y="273.83" width="3.16" height="3.62" transform="translate(715.51 551.28) rotate(180)" style="fill:#fff"></rect><rect x="367.14" y="279.41" width="3.16" height="3.62" transform="translate(737.44 562.45) rotate(180)" style="fill:#fff"></rect><rect x="361.66" y="279.41" width="3.16" height="3.62" transform="translate(726.48 562.45) rotate(180)" style="fill:#fff"></rect><rect x="356.18" y="279.41" width="3.16" height="3.62" transform="translate(715.51 562.45) rotate(180)" style="fill:#fff"></rect><rect x="437.66" y="242.95" width="18.2" height="2.71" transform="translate(893.53 488.61) rotate(180)" style="fill:#fff"></rect><rect x="437.66" y="248.21" width="18.2" height="2.71" transform="translate(893.53 499.14) rotate(180)" style="fill:#fff"></rect><rect x="437.66" y="253.48" width="18.2" height="2.71" transform="translate(893.53 509.67) rotate(180)" style="fill:#fff"></rect><rect x="437.66" y="258.75" width="18.2" height="2.71" transform="translate(893.53 520.21) rotate(180)" style="fill:#fff"></rect><rect x="437.66" y="264.01" width="18.2" height="2.71" transform="translate(893.53 530.74) rotate(180)" style="fill:#fff"></rect><rect x="437.66" y="269.28" width="18.2" height="2.71" transform="translate(893.53 541.27) rotate(180)" style="fill:#fff"></rect><rect x="437.66" y="274.54" width="18.2" height="2.71" transform="translate(893.53 551.8) rotate(180)" style="fill:#fff"></rect><rect x="437.66" y="279.81" width="18.2" height="2.71" transform="translate(893.53 562.33) rotate(180)" style="fill:#fff"></rect><rect x="306.61" y="205.77" width="16.74" height="2.71" transform="translate(629.96 414.26) rotate(180)" style="fill:#fff"></rect><rect x="306.61" y="211.04" width="16.74" height="2.71" transform="translate(629.96 424.79) rotate(180)" style="fill:#fff"></rect><rect x="306.61" y="216.3" width="16.74" height="2.71" transform="translate(629.96 435.32) rotate(180)" style="fill:#fff"></rect><rect x="306.61" y="221.57" width="16.74" height="2.71" transform="translate(629.96 445.85) rotate(180)" style="fill:#fff"></rect><rect x="306.61" y="226.84" width="16.74" height="2.71" style="fill:#fff"></rect><rect x="306.61" y="232.1" width="16.74" height="2.71" transform="translate(629.96 466.92) rotate(180)" style="fill:#fff"></rect><rect x="306.61" y="237.37" width="16.74" height="2.71" transform="translate(629.96 477.45) rotate(180)" style="fill:#fff"></rect><rect x="306.61" y="242.63" width="16.74" height="2.71" transform="translate(629.96 487.98) rotate(180)" style="fill:#fff"></rect><rect x="306.61" y="247.64" width="16.74" height="2.71" transform="translate(629.96 497.99) rotate(180)" style="fill:#fff"></rect><rect x="306.61" y="252.64" width="16.74" height="2.71" transform="translate(629.96 507.99) rotate(180)" style="fill:#fff"></rect><rect x="306.61" y="257.64" width="16.74" height="2.71" transform="translate(629.96 518) rotate(180)" style="fill:#fff"></rect><rect x="306.61" y="262.65" width="16.74" height="2.71" transform="translate(629.96 528.01) rotate(180)" style="fill:#fff"></rect><rect x="279.55" y="212.13" width="17.68" height="2.71" transform="translate(576.79 426.98) rotate(180)" style="fill:#fff"></rect><rect x="279.55" y="217.4" width="17.68" height="2.71" transform="translate(576.79 437.51) rotate(180)" style="fill:#fff"></rect><rect x="279.55" y="222.66" width="17.68" height="2.71" transform="translate(576.79 448.04) rotate(180)" style="fill:#fff"></rect><rect x="279.55" y="227.93" width="17.68" height="2.71" transform="translate(576.79 458.57) rotate(180)" style="fill:#fff"></rect><rect x="279.55" y="233.2" width="17.68" height="2.71" transform="translate(576.79 469.11) rotate(180)" style="fill:#fff"></rect><rect x="279.55" y="238.46" width="17.68" height="2.71" transform="translate(576.79 479.64) rotate(180)" style="fill:#fff"></rect><rect x="279.55" y="243.73" width="17.68" height="2.71" transform="translate(576.79 490.17) rotate(180)" style="fill:#fff"></rect><rect x="279.55" y="248.99" width="17.68" height="2.71" transform="translate(576.79 500.7) rotate(180)" style="fill:#fff"></rect><rect x="279.55" y="253.71" width="17.68" height="2.71" transform="translate(576.79 510.13) rotate(180)" style="fill:#fff"></rect><rect x="279.55" y="258.42" width="17.68" height="2.71" transform="translate(576.79 519.55) rotate(180)" style="fill:#fff"></rect><rect x="279.55" y="263.13" width="17.68" height="2.71" transform="translate(576.79 528.98) rotate(180)" style="fill:#fff"></rect><rect x="386.09" y="234.38" width="5.62" height="2.62" transform="translate(777.8 471.38) rotate(180)" style="fill:#fff"></rect><rect x="386.09" y="239.46" width="5.62" height="2.62" transform="translate(777.8 481.55) rotate(180)" style="fill:#fff"></rect><rect x="386.09" y="244.55" width="5.62" height="2.62" transform="translate(777.8 491.72) rotate(180)" style="fill:#fff"></rect><rect x="386.09" y="249.63" width="5.62" height="2.62" transform="translate(777.8 501.89) rotate(180)" style="fill:#fff"></rect><rect x="386.09" y="254.72" width="5.62" height="2.62" transform="translate(777.8 512.06) rotate(180)" style="fill:#fff"></rect><rect x="386.09" y="259.8" width="5.62" height="2.62" transform="translate(777.8 522.23) rotate(180)" style="fill:#fff"></rect><rect x="386.09" y="264.89" width="5.62" height="2.62" transform="translate(777.8 532.4) rotate(180)" style="fill:#fff"></rect><rect x="386.09" y="269.97" width="5.62" height="2.62" transform="translate(777.8 542.57) rotate(180)" style="fill:#fff"></rect><rect x="378.44" y="234.38" width="5.62" height="2.62" transform="translate(762.5 471.38) rotate(180)" style="fill:#fff"></rect><rect x="378.44" y="239.46" width="5.62" height="2.62" transform="translate(762.5 481.55) rotate(180)" style="fill:#fff"></rect><rect x="378.44" y="244.55" width="5.62" height="2.62" transform="translate(762.5 491.72) rotate(180)" style="fill:#fff"></rect><rect x="378.44" y="249.63" width="5.62" height="2.62" transform="translate(762.5 501.89) rotate(180)" style="fill:#fff"></rect><rect x="378.44" y="254.72" width="5.62" height="2.62" transform="translate(762.5 512.06) rotate(180)" style="fill:#fff"></rect><rect x="378.44" y="259.8" width="5.62" height="2.62" transform="translate(762.5 522.23) rotate(180)" style="fill:#fff"></rect><rect x="378.44" y="264.89" width="5.62" height="2.62" transform="translate(762.5 532.4) rotate(180)" style="fill:#fff"></rect><rect x="378.44" y="269.97" width="5.62" height="2.62" transform="translate(762.5 542.57) rotate(180)" style="fill:#fff"></rect><rect x="422.67" y="201.17" width="5.86" height="4.13" transform="translate(851.19 406.47) rotate(180)" style="fill:#fff"></rect><rect x="413.93" y="201.17" width="5.86" height="4.13" transform="translate(833.73 406.47) rotate(180)" style="fill:#fff"></rect><rect x="422.67" y="207.24" width="5.86" height="4.13" transform="translate(851.19 418.61) rotate(180)" style="fill:#fff"></rect><rect x="413.93" y="207.24" width="5.86" height="4.13" transform="translate(833.73 418.61) rotate(180)" style="fill:#fff"></rect><rect x="422.67" y="213.31" width="5.86" height="4.13" transform="translate(851.19 430.76) rotate(180)" style="fill:#fff"></rect><rect x="413.93" y="213.31" width="5.86" height="4.13" transform="translate(833.73 430.76) rotate(180)" style="fill:#fff"></rect><rect x="422.67" y="219.38" width="5.86" height="4.13" transform="translate(851.19 442.9) rotate(180)" style="fill:#fff"></rect><rect x="413.93" y="219.38" width="5.86" height="4.13" transform="translate(833.73 442.9) rotate(180)" style="fill:#fff"></rect><rect x="422.67" y="225.45" width="5.86" height="4.13" transform="translate(851.19 455.04) rotate(180)" style="fill:#fff"></rect><rect x="413.93" y="225.45" width="5.86" height="4.13" transform="translate(833.73 455.04) rotate(180)" style="fill:#fff"></rect><rect x="403.11" y="227.66" width="5.86" height="4.13" transform="translate(812.08 459.45) rotate(180)" style="fill:#fff"></rect><rect x="403.11" y="233.73" width="5.86" height="4.13" transform="translate(812.08 471.59) rotate(180)" style="fill:#fff"></rect><rect x="403.11" y="239.8" width="5.86" height="4.13" transform="translate(812.08 483.73) rotate(180)" style="fill:#fff"></rect><rect x="403.11" y="245.87" width="5.86" height="4.13" transform="translate(812.08 495.87) rotate(180)" style="fill:#fff"></rect><rect x="403.11" y="251.94" width="5.86" height="4.13" transform="translate(812.08 508.02) rotate(180)" style="fill:#fff"></rect><rect x="403.11" y="258.01" width="5.86" height="4.13" transform="translate(812.08 520.16) rotate(180)" style="fill:#fff"></rect><rect x="422.67" y="231.45" width="5.86" height="4.13" transform="translate(851.19 467.04) rotate(180)" style="fill:#fff"></rect><rect x="413.93" y="231.45" width="5.86" height="4.13" transform="translate(833.73 467.04) rotate(180)" style="fill:#fff"></rect><rect x="403.11" y="264.01" width="5.86" height="4.13" transform="translate(812.08 532.16) rotate(180)" style="fill:#fff"></rect><rect x="422.67" y="237.45" width="5.86" height="4.13" transform="translate(851.19 479.04) rotate(180)" style="fill:#fff"></rect><rect x="413.93" y="237.45" width="5.86" height="4.13" transform="translate(833.73 479.04) rotate(180)" style="fill:#fff"></rect><rect x="403.11" y="270.01" width="5.86" height="4.13" transform="translate(812.08 544.15) rotate(180)" style="fill:#fff"></rect><rect x="422.67" y="243.45" width="5.86" height="4.13" transform="translate(851.19 491.03) rotate(180)" style="fill:#fff"></rect><rect x="413.93" y="243.45" width="5.86" height="4.13" transform="translate(833.73 491.03) rotate(180)" style="fill:#fff"></rect><rect x="403.11" y="276.01" width="5.86" height="4.13" transform="translate(812.08 556.15) rotate(180)" style="fill:#fff"></rect><rect x="422.67" y="249.45" width="5.86" height="4.13" transform="translate(851.19 503.03) rotate(180)" style="fill:#fff"></rect><rect x="413.93" y="249.45" width="5.86" height="4.13" transform="translate(833.73 503.03) rotate(180)" style="fill:#fff"></rect><rect x="422.67" y="255.45" width="5.86" height="4.13" transform="translate(851.19 515.03) rotate(180)" style="fill:#fff"></rect><rect x="413.93" y="255.45" width="5.86" height="4.13" transform="translate(833.73 515.03) rotate(180)" style="fill:#fff"></rect><rect x="350.22" y="221.41" width="3.16" height="3.62" transform="translate(703.6 446.45) rotate(180)" style="fill:#fff"></rect><rect x="344.74" y="221.41" width="3.16" height="3.62" transform="translate(692.63 446.45) rotate(180)" style="fill:#fff"></rect><rect x="350.22" y="226.86" width="3.16" height="3.62" transform="translate(703.6 457.34) rotate(180)" style="fill:#fff"></rect><rect x="344.74" y="226.86" width="3.16" height="3.62" transform="translate(692.63 457.34) rotate(180)" style="fill:#fff"></rect><rect x="350.22" y="232.31" width="3.16" height="3.62" transform="translate(703.6 468.23) rotate(180)" style="fill:#fff"></rect><rect x="344.74" y="232.31" width="3.16" height="3.62" transform="translate(692.63 468.23) rotate(180)" style="fill:#fff"></rect><rect x="350.22" y="237.75" width="3.16" height="3.62" transform="translate(703.6 479.13) rotate(180)" style="fill:#fff"></rect><rect x="344.74" y="237.75" width="3.16" height="3.62" transform="translate(692.63 479.13) rotate(180)" style="fill:#fff"></rect><rect x="350.22" y="243.33" width="3.16" height="3.62" transform="translate(703.6 490.29) rotate(180)" style="fill:#fff"></rect><rect x="344.74" y="243.33" width="3.16" height="3.62" transform="translate(692.63 490.29) rotate(180)" style="fill:#fff"></rect><rect x="350.22" y="248.92" width="3.16" height="3.62" transform="translate(703.6 501.45) rotate(180)" style="fill:#fff"></rect><rect x="344.74" y="248.92" width="3.16" height="3.62" transform="translate(692.63 501.45) rotate(180)" style="fill:#fff"></rect><rect x="350.22" y="254.5" width="3.16" height="3.62" transform="translate(703.6 512.62) rotate(180)" style="fill:#fff"></rect><rect x="344.74" y="254.5" width="3.16" height="3.62" transform="translate(692.63 512.62) rotate(180)" style="fill:#fff"></rect><rect x="350.22" y="260.08" width="3.16" height="3.62" transform="translate(703.6 523.78) rotate(180)" style="fill:#fff"></rect><rect x="344.74" y="260.08" width="3.16" height="3.62" transform="translate(692.63 523.78) rotate(180)" style="fill:#fff"></rect><rect x="350.22" y="265.72" width="3.16" height="3.62" transform="translate(703.6 535.06) rotate(180)" style="fill:#fff"></rect><rect x="344.74" y="265.72" width="3.16" height="3.62" transform="translate(692.63 535.06) rotate(180)" style="fill:#fff"></rect><rect x="350.22" y="271.36" width="3.16" height="3.62" transform="translate(703.6 546.34) rotate(180)" style="fill:#fff"></rect><rect x="344.74" y="271.36" width="3.16" height="3.62" transform="translate(692.63 546.34) rotate(180)" style="fill:#fff"></rect><rect x="350.22" y="277" width="3.16" height="3.62" transform="translate(703.6 557.63) rotate(180)" style="fill:#fff"></rect><rect x="344.74" y="277" width="3.16" height="3.62" transform="translate(692.63 557.63) rotate(180)" style="fill:#fff"></rect><rect x="273" y="189.44" width="3.16" height="4.27" transform="translate(549.17 383.15) rotate(180)" style="fill:#fff"></rect><rect x="267.52" y="189.44" width="3.16" height="4.27" transform="translate(538.21 383.15) rotate(180)" style="fill:#fff"></rect><rect x="273" y="195.86" width="3.16" height="4.26" transform="translate(549.17 395.98) rotate(180)" style="fill:#fff"></rect><rect x="267.52" y="195.86" width="3.16" height="4.26" transform="translate(538.21 395.98) rotate(180)" style="fill:#fff"></rect><rect x="273" y="202.28" width="3.16" height="4.26" transform="translate(549.17 408.82) rotate(180)" style="fill:#fff"></rect><rect x="267.52" y="202.28" width="3.16" height="4.26" transform="translate(538.21 408.82) rotate(180)" style="fill:#fff"></rect><rect x="273" y="208.69" width="3.16" height="4.26" transform="translate(549.17 421.65) rotate(180)" style="fill:#fff"></rect><rect x="267.52" y="208.69" width="3.16" height="4.26" transform="translate(538.21 421.65) rotate(180)" style="fill:#fff"></rect><rect x="273" y="215.27" width="3.16" height="4.27" transform="translate(549.17 434.8) rotate(180)" style="fill:#fff"></rect><rect x="267.52" y="215.27" width="3.16" height="4.27" transform="translate(538.21 434.8) rotate(180)" style="fill:#fff"></rect><rect x="273" y="221.85" width="3.16" height="4.26" transform="translate(549.17 447.96) rotate(180)" style="fill:#fff"></rect><rect x="267.52" y="221.85" width="3.16" height="4.26" transform="translate(538.21 447.96) rotate(180)" style="fill:#fff"></rect><rect x="273" y="228.42" width="3.16" height="4.26" transform="translate(549.17 461.11) rotate(180)" style="fill:#fff"></rect><rect x="267.52" y="228.42" width="3.16" height="4.26" transform="translate(538.21 461.11) rotate(180)" style="fill:#fff"></rect><rect x="273" y="235" width="3.16" height="4.26" transform="translate(549.17 474.26) rotate(180)" style="fill:#fff"></rect><rect x="267.52" y="235" width="3.16" height="4.26" transform="translate(538.21 474.26) rotate(180)" style="fill:#fff"></rect><rect x="273" y="241.64" width="3.16" height="4.26" transform="translate(549.17 487.55) rotate(180)" style="fill:#fff"></rect><rect x="267.52" y="241.64" width="3.16" height="4.26" transform="translate(538.21 487.55) rotate(180)" style="fill:#fff"></rect><rect x="273" y="248.29" width="3.16" height="4.26" transform="translate(549.17 500.84) rotate(180)" style="fill:#fff"></rect><rect x="267.52" y="248.29" width="3.16" height="4.26" transform="translate(538.21 500.84) rotate(180)" style="fill:#fff"></rect><rect x="273" y="254.93" width="3.16" height="4.26" transform="translate(549.17 514.13) rotate(180)" style="fill:#fff"></rect><rect x="267.52" y="254.93" width="3.16" height="4.26" transform="translate(538.21 514.13) rotate(180)" style="fill:#fff"></rect><rect x="273" y="261.58" width="3.16" height="4.26" transform="translate(549.17 527.43) rotate(180)" style="fill:#fff"></rect><rect x="267.52" y="261.58" width="3.16" height="4.26" transform="translate(538.21 527.43) rotate(180)" style="fill:#fff"></rect><rect x="338.5" y="221.41" width="3.16" height="3.62" transform="translate(680.16 446.45) rotate(180)" style="fill:#fff"></rect><rect x="333.02" y="221.41" width="3.16" height="3.62" transform="translate(669.19 446.45) rotate(180)" style="fill:#fff"></rect><rect x="338.5" y="215.83" width="3.16" height="3.62" transform="translate(680.16 435.28) rotate(180)" style="fill:#fff"></rect><rect x="333.02" y="215.83" width="3.16" height="3.62" transform="translate(669.19 435.28) rotate(180)" style="fill:#fff"></rect><rect x="338.5" y="210.24" width="3.16" height="3.62" transform="translate(680.16 424.11) rotate(180)" style="fill:#fff"></rect><rect x="333.02" y="210.24" width="3.16" height="3.62" transform="translate(669.19 424.11) rotate(180)" style="fill:#fff"></rect><rect x="338.5" y="226.86" width="3.16" height="3.62" transform="translate(680.16 457.34) rotate(180)" style="fill:#fff"></rect><rect x="333.02" y="226.86" width="3.16" height="3.62" transform="translate(669.19 457.34) rotate(180)" style="fill:#fff"></rect><rect x="338.5" y="232.31" width="3.16" height="3.62" transform="translate(680.16 468.23) rotate(180)" style="fill:#fff"></rect><rect x="333.02" y="232.31" width="3.16" height="3.62" transform="translate(669.19 468.23) rotate(180)" style="fill:#fff"></rect><rect x="338.5" y="237.75" width="3.16" height="3.62" transform="translate(680.16 479.13) rotate(180)" style="fill:#fff"></rect><rect x="333.02" y="237.75" width="3.16" height="3.62" transform="translate(669.19 479.13) rotate(180)" style="fill:#fff"></rect><rect x="338.5" y="243.33" width="3.16" height="3.62" transform="translate(680.16 490.29) rotate(180)" style="fill:#fff"></rect><rect x="333.02" y="243.33" width="3.16" height="3.62" transform="translate(669.19 490.29) rotate(180)" style="fill:#fff"></rect><rect x="338.5" y="248.92" width="3.16" height="3.62" transform="translate(680.16 501.45) rotate(180)" style="fill:#fff"></rect><rect x="333.02" y="248.92" width="3.16" height="3.62" transform="translate(669.19 501.45) rotate(180)" style="fill:#fff"></rect><rect x="338.5" y="254.5" width="3.16" height="3.62" transform="translate(680.16 512.62) rotate(180)" style="fill:#fff"></rect><rect x="333.02" y="254.5" width="3.16" height="3.62" transform="translate(669.19 512.62) rotate(180)" style="fill:#fff"></rect><rect x="338.5" y="260.08" width="3.16" height="3.62" transform="translate(680.16 523.78) rotate(180)" style="fill:#fff"></rect><rect x="333.02" y="260.08" width="3.16" height="3.62" transform="translate(669.19 523.78) rotate(180)" style="fill:#fff"></rect><rect x="338.5" y="265.72" width="3.16" height="3.62" transform="translate(680.16 535.06) rotate(180)" style="fill:#fff"></rect><rect x="333.02" y="265.72" width="3.16" height="3.62" transform="translate(669.19 535.06) rotate(180)" style="fill:#fff"></rect><rect x="338.5" y="271.36" width="3.16" height="3.62" transform="translate(680.16 546.34) rotate(180)" style="fill:#fff"></rect><rect x="333.02" y="271.36" width="3.16" height="3.62" transform="translate(669.19 546.34) rotate(180)" style="fill:#fff"></rect><rect x="338.5" y="277" width="3.16" height="3.62" transform="translate(680.16 557.63) rotate(180)" style="fill:#fff"></rect><rect x="333.02" y="277" width="3.16" height="3.62" transform="translate(669.19 557.63) rotate(180)" style="fill:#fff"></rect><polygon points="51.22 187.52 51.22 304.06 266.64 304.06 266.64 230.32 247.95 230.32 247.95 253.01 243.14 253.01 243.14 240.17 219.38 240.17 219.38 260.51 216.23 260.51 216.23 180.21 195.58 180.21 195.58 225.87 184.99 225.87 184.99 242.18 181.78 242.18 181.78 231.92 163 231.92 163 262.52 157.51 262.52 157.51 237.65 140.34 237.65 140.34 218.75 128.67 218.75 128.67 207.99 115.16 207.99 115.16 255.72 110.61 255.72 110.61 203.24 88.37 203.24 88.37 231.75 85.29 231.75 85.29 208.48 62.73 208.48 62.73 187.52 51.22 187.52" style="fill:#ebebeb"></polygon><rect x="261.19" y="233.17" width="3.16" height="4.34" transform="translate(525.54 470.69) rotate(180)" style="fill:#fff"></rect><rect x="255.71" y="233.17" width="3.16" height="4.34" transform="translate(514.58 470.69) rotate(180)" style="fill:#fff"></rect><rect x="250.23" y="233.17" width="3.16" height="4.34" transform="translate(503.62 470.69) rotate(180)" style="fill:#fff"></rect><rect x="261.19" y="239.7" width="3.16" height="4.34" transform="translate(525.54 483.74) rotate(180)" style="fill:#fff"></rect><rect x="255.71" y="239.7" width="3.16" height="4.34" transform="translate(514.58 483.74) rotate(180)" style="fill:#fff"></rect><rect x="250.23" y="239.7" width="3.16" height="4.34" transform="translate(503.62 483.74) rotate(180)" style="fill:#fff"></rect><rect x="261.19" y="246.23" width="3.16" height="4.34" transform="translate(525.54 496.8) rotate(180)" style="fill:#fff"></rect><rect x="255.71" y="246.23" width="3.16" height="4.34" transform="translate(514.58 496.8) rotate(180)" style="fill:#fff"></rect><rect x="250.23" y="246.23" width="3.16" height="4.34" transform="translate(503.62 496.8) rotate(180)" style="fill:#fff"></rect><rect x="261.19" y="252.76" width="3.16" height="4.34" transform="translate(525.54 509.86) rotate(180)" style="fill:#fff"></rect><rect x="255.71" y="252.76" width="3.16" height="4.34" transform="translate(514.58 509.86) rotate(180)" style="fill:#fff"></rect><rect x="250.23" y="252.76" width="3.16" height="4.34" transform="translate(503.62 509.86) rotate(180)" style="fill:#fff"></rect><rect x="151.72" y="240.75" width="3.16" height="3.62" transform="translate(306.59 485.11) rotate(180)" style="fill:#fff"></rect><rect x="146.23" y="240.75" width="3.16" height="3.62" transform="translate(295.63 485.11) rotate(180)" style="fill:#fff"></rect><rect x="140.75" y="240.75" width="3.16" height="3.62" transform="translate(284.67 485.11) rotate(180)" style="fill:#fff"></rect><rect x="151.72" y="246.19" width="3.16" height="3.62" transform="translate(306.59 496.01) rotate(180)" style="fill:#fff"></rect><rect x="146.23" y="246.19" width="3.16" height="3.62" transform="translate(295.63 496.01) rotate(180)" style="fill:#fff"></rect><rect x="140.75" y="246.19" width="3.16" height="3.62" transform="translate(284.67 496.01) rotate(180)" style="fill:#fff"></rect><rect x="151.72" y="251.64" width="3.16" height="3.62" transform="translate(306.59 506.9) rotate(180)" style="fill:#fff"></rect><rect x="146.23" y="251.64" width="3.16" height="3.62" transform="translate(295.63 506.9) rotate(180)" style="fill:#fff"></rect><rect x="140.75" y="251.64" width="3.16" height="3.62" transform="translate(284.67 506.9) rotate(180)" style="fill:#fff"></rect><rect x="151.72" y="257.09" width="3.16" height="3.62" transform="translate(306.59 517.79) rotate(180)" style="fill:#fff"></rect><rect x="146.23" y="257.09" width="3.16" height="3.62" transform="translate(295.63 517.79) rotate(180)" style="fill:#fff"></rect><rect x="140.75" y="257.09" width="3.16" height="3.62" transform="translate(284.67 517.79) rotate(180)" style="fill:#fff"></rect><rect x="151.72" y="262.67" width="3.16" height="3.62" transform="translate(306.59 528.96) rotate(180)" style="fill:#fff"></rect><rect x="146.23" y="262.67" width="3.16" height="3.62" transform="translate(295.63 528.96) rotate(180)" style="fill:#fff"></rect><rect x="140.75" y="262.67" width="3.16" height="3.62" transform="translate(284.67 528.96) rotate(180)" style="fill:#fff"></rect><rect x="151.72" y="268.25" width="3.16" height="3.62" transform="translate(306.59 540.12) rotate(180)" style="fill:#fff"></rect><rect x="146.23" y="268.25" width="3.16" height="3.62" transform="translate(295.63 540.12) rotate(180)" style="fill:#fff"></rect><rect x="140.75" y="268.25" width="3.16" height="3.62" transform="translate(284.67 540.12) rotate(180)" style="fill:#fff"></rect><rect x="151.72" y="273.83" width="3.16" height="3.62" transform="translate(306.59 551.28) rotate(180)" style="fill:#fff"></rect><rect x="146.23" y="273.83" width="3.16" height="3.62" transform="translate(295.63 551.28) rotate(180)" style="fill:#fff"></rect><rect x="140.75" y="273.83" width="3.16" height="3.62" transform="translate(284.67 551.28) rotate(180)" style="fill:#fff"></rect><rect x="151.72" y="279.41" width="3.16" height="3.62" transform="translate(306.59 562.45) rotate(180)" style="fill:#fff"></rect><rect x="146.23" y="279.41" width="3.16" height="3.62" transform="translate(295.63 562.45) rotate(180)" style="fill:#fff"></rect><rect x="140.75" y="279.41" width="3.16" height="3.62" transform="translate(284.67 562.45) rotate(180)" style="fill:#fff"></rect><rect x="222.24" y="242.95" width="18.2" height="2.71" transform="translate(462.68 488.61) rotate(180)" style="fill:#fff"></rect><rect x="222.24" y="248.21" width="18.2" height="2.71" transform="translate(462.68 499.14) rotate(180)" style="fill:#fff"></rect><rect x="222.24" y="253.48" width="18.2" height="2.71" transform="translate(462.68 509.67) rotate(180)" style="fill:#fff"></rect><rect x="222.24" y="258.75" width="18.2" height="2.71" transform="translate(462.68 520.21) rotate(180)" style="fill:#fff"></rect><rect x="222.24" y="264.01" width="18.2" height="2.71" transform="translate(462.68 530.74) rotate(180)" style="fill:#fff"></rect><rect x="222.24" y="269.28" width="18.2" height="2.71" transform="translate(462.68 541.27) rotate(180)" style="fill:#fff"></rect><rect x="222.24" y="274.54" width="18.2" height="2.71" transform="translate(462.68 551.8) rotate(180)" style="fill:#fff"></rect><rect x="222.24" y="279.81" width="18.2" height="2.71" transform="translate(462.68 562.33) rotate(180)" style="fill:#fff"></rect><rect x="91.19" y="205.77" width="16.74" height="2.71" transform="translate(199.12 414.26) rotate(180)" style="fill:#fff"></rect><rect x="91.19" y="211.04" width="16.74" height="2.71" transform="translate(199.12 424.79) rotate(180)" style="fill:#fff"></rect><rect x="91.19" y="216.3" width="16.74" height="2.71" transform="translate(199.12 435.32) rotate(180)" style="fill:#fff"></rect><rect x="91.19" y="221.57" width="16.74" height="2.71" transform="translate(199.12 445.85) rotate(180)" style="fill:#fff"></rect><rect x="91.19" y="226.84" width="16.74" height="2.71" style="fill:#fff"></rect><rect x="91.19" y="232.1" width="16.74" height="2.71" transform="translate(199.12 466.92) rotate(180)" style="fill:#fff"></rect><rect x="91.19" y="237.37" width="16.74" height="2.71" transform="translate(199.12 477.45) rotate(180)" style="fill:#fff"></rect><rect x="91.19" y="242.63" width="16.74" height="2.71" transform="translate(199.12 487.98) rotate(180)" style="fill:#fff"></rect><rect x="91.19" y="247.64" width="16.74" height="2.71" transform="translate(199.12 497.99) rotate(180)" style="fill:#fff"></rect><rect x="91.19" y="252.64" width="16.74" height="2.71" transform="translate(199.12 507.99) rotate(180)" style="fill:#fff"></rect><rect x="91.19" y="257.64" width="16.74" height="2.71" transform="translate(199.12 518) rotate(180)" style="fill:#fff"></rect><rect x="91.19" y="262.65" width="16.74" height="2.71" transform="translate(199.12 528.01) rotate(180)" style="fill:#fff"></rect><rect x="64.13" y="212.13" width="17.68" height="2.71" transform="translate(145.94 426.98) rotate(180)" style="fill:#fff"></rect><rect x="64.13" y="217.4" width="17.68" height="2.71" transform="translate(145.94 437.51) rotate(180)" style="fill:#fff"></rect><rect x="64.13" y="222.66" width="17.68" height="2.71" transform="translate(145.94 448.04) rotate(180)" style="fill:#fff"></rect><rect x="64.13" y="227.93" width="17.68" height="2.71" transform="translate(145.94 458.57) rotate(180)" style="fill:#fff"></rect><rect x="64.13" y="233.2" width="17.68" height="2.71" transform="translate(145.94 469.11) rotate(180)" style="fill:#fff"></rect><rect x="64.13" y="238.46" width="17.68" height="2.71" transform="translate(145.94 479.64) rotate(180)" style="fill:#fff"></rect><rect x="64.13" y="243.73" width="17.68" height="2.71" transform="translate(145.94 490.17) rotate(180)" style="fill:#fff"></rect><rect x="64.13" y="248.99" width="17.68" height="2.71" transform="translate(145.94 500.7) rotate(180)" style="fill:#fff"></rect><rect x="64.13" y="253.71" width="17.68" height="2.71" transform="translate(145.94 510.13) rotate(180)" style="fill:#fff"></rect><rect x="64.13" y="258.42" width="17.68" height="2.71" transform="translate(145.94 519.55) rotate(180)" style="fill:#fff"></rect><rect x="64.13" y="263.13" width="17.68" height="2.71" transform="translate(145.94 528.98) rotate(180)" style="fill:#fff"></rect><rect x="170.67" y="234.38" width="5.62" height="2.62" transform="translate(346.96 471.38) rotate(180)" style="fill:#fff"></rect><rect x="170.67" y="239.46" width="5.62" height="2.62" transform="translate(346.96 481.55) rotate(180)" style="fill:#fff"></rect><rect x="170.67" y="244.55" width="5.62" height="2.62" transform="translate(346.96 491.72) rotate(180)" style="fill:#fff"></rect><rect x="170.67" y="249.63" width="5.62" height="2.62" transform="translate(346.96 501.89) rotate(180)" style="fill:#fff"></rect><rect x="170.67" y="254.72" width="5.62" height="2.62" transform="translate(346.96 512.06) rotate(180)" style="fill:#fff"></rect><rect x="170.67" y="259.8" width="5.62" height="2.62" transform="translate(346.96 522.23) rotate(180)" style="fill:#fff"></rect><rect x="170.67" y="264.89" width="5.62" height="2.62" transform="translate(346.96 532.4) rotate(180)" style="fill:#fff"></rect><rect x="170.67" y="269.97" width="5.62" height="2.62" transform="translate(346.96 542.57) rotate(180)" style="fill:#fff"></rect><rect x="163.02" y="234.38" width="5.62" height="2.62" transform="translate(331.66 471.38) rotate(180)" style="fill:#fff"></rect><rect x="163.02" y="239.46" width="5.62" height="2.62" transform="translate(331.66 481.55) rotate(180)" style="fill:#fff"></rect><rect x="163.02" y="244.55" width="5.62" height="2.62" transform="translate(331.66 491.72) rotate(180)" style="fill:#fff"></rect><rect x="163.02" y="249.63" width="5.62" height="2.62" transform="translate(331.66 501.89) rotate(180)" style="fill:#fff"></rect><rect x="163.02" y="254.72" width="5.62" height="2.62" transform="translate(331.66 512.06) rotate(180)" style="fill:#fff"></rect><rect x="163.02" y="259.8" width="5.62" height="2.62" transform="translate(331.66 522.23) rotate(180)" style="fill:#fff"></rect><rect x="163.02" y="264.89" width="5.62" height="2.62" transform="translate(331.66 532.4) rotate(180)" style="fill:#fff"></rect><rect x="163.02" y="269.97" width="5.62" height="2.62" transform="translate(331.66 542.57) rotate(180)" style="fill:#fff"></rect><rect x="207.24" y="182.95" width="5.86" height="4.13" transform="translate(420.34 370.04) rotate(180)" style="fill:#fff"></rect><rect x="198.51" y="182.95" width="5.86" height="4.13" transform="translate(402.88 370.04) rotate(180)" style="fill:#fff"></rect><rect x="207.24" y="189.03" width="5.86" height="4.13" transform="translate(420.34 382.18) rotate(180)" style="fill:#fff"></rect><rect x="198.51" y="189.03" width="5.86" height="4.13" transform="translate(402.88 382.18) rotate(180)" style="fill:#fff"></rect><rect x="207.24" y="195.1" width="5.86" height="4.13" transform="translate(420.34 394.33) rotate(180)" style="fill:#fff"></rect><rect x="198.51" y="195.1" width="5.86" height="4.13" transform="translate(402.88 394.33) rotate(180)" style="fill:#fff"></rect><rect x="207.24" y="201.17" width="5.86" height="4.13" transform="translate(420.34 406.47) rotate(180)" style="fill:#fff"></rect><rect x="198.51" y="201.17" width="5.86" height="4.13" transform="translate(402.88 406.47) rotate(180)" style="fill:#fff"></rect><rect x="207.24" y="207.24" width="5.86" height="4.13" transform="translate(420.34 418.61) rotate(180)" style="fill:#fff"></rect><rect x="198.51" y="207.24" width="5.86" height="4.13" transform="translate(402.88 418.61) rotate(180)" style="fill:#fff"></rect><rect x="207.24" y="213.31" width="5.86" height="4.13" transform="translate(420.34 430.76) rotate(180)" style="fill:#fff"></rect><rect x="198.51" y="213.31" width="5.86" height="4.13" transform="translate(402.88 430.76) rotate(180)" style="fill:#fff"></rect><rect x="207.24" y="219.38" width="5.86" height="4.13" transform="translate(420.34 442.9) rotate(180)" style="fill:#fff"></rect><rect x="198.51" y="219.38" width="5.86" height="4.13" transform="translate(402.88 442.9) rotate(180)" style="fill:#fff"></rect><rect x="207.24" y="225.45" width="5.86" height="4.13" transform="translate(420.34 455.04) rotate(180)" style="fill:#fff"></rect><rect x="198.51" y="225.45" width="5.86" height="4.13" transform="translate(402.88 455.04) rotate(180)" style="fill:#fff"></rect><rect x="187.69" y="227.66" width="5.86" height="4.13" transform="translate(381.24 459.45) rotate(180)" style="fill:#fff"></rect><rect x="187.69" y="233.73" width="5.86" height="4.13" transform="translate(381.24 471.59) rotate(180)" style="fill:#fff"></rect><rect x="187.69" y="239.8" width="5.86" height="4.13" transform="translate(381.24 483.73) rotate(180)" style="fill:#fff"></rect><rect x="187.69" y="245.87" width="5.86" height="4.13" transform="translate(381.24 495.87) rotate(180)" style="fill:#fff"></rect><rect x="187.69" y="251.94" width="5.86" height="4.13" transform="translate(381.24 508.02) rotate(180)" style="fill:#fff"></rect><rect x="187.69" y="258.01" width="5.86" height="4.13" transform="translate(381.24 520.16) rotate(180)" style="fill:#fff"></rect><rect x="207.24" y="231.45" width="5.86" height="4.13" transform="translate(420.34 467.04) rotate(180)" style="fill:#fff"></rect><rect x="198.51" y="231.45" width="5.86" height="4.13" transform="translate(402.88 467.04) rotate(180)" style="fill:#fff"></rect><rect x="187.69" y="264.01" width="5.86" height="4.13" transform="translate(381.24 532.16) rotate(180)" style="fill:#fff"></rect><rect x="207.24" y="237.45" width="5.86" height="4.13" transform="translate(420.34 479.04) rotate(180)" style="fill:#fff"></rect><rect x="198.51" y="237.45" width="5.86" height="4.13" transform="translate(402.88 479.04) rotate(180)" style="fill:#fff"></rect><rect x="187.69" y="270.01" width="5.86" height="4.13" transform="translate(381.24 544.15) rotate(180)" style="fill:#fff"></rect><rect x="207.24" y="243.45" width="5.86" height="4.13" transform="translate(420.34 491.03) rotate(180)" style="fill:#fff"></rect><rect x="198.51" y="243.45" width="5.86" height="4.13" transform="translate(402.88 491.03) rotate(180)" style="fill:#fff"></rect><rect x="187.69" y="276.01" width="5.86" height="4.13" transform="translate(381.24 556.15) rotate(180)" style="fill:#fff"></rect><rect x="207.24" y="249.45" width="5.86" height="4.13" transform="translate(420.34 503.03) rotate(180)" style="fill:#fff"></rect><rect x="198.51" y="249.45" width="5.86" height="4.13" transform="translate(402.88 503.03) rotate(180)" style="fill:#fff"></rect><rect x="207.24" y="255.45" width="5.86" height="4.13" transform="translate(420.34 515.03) rotate(180)" style="fill:#fff"></rect><rect x="198.51" y="255.45" width="5.86" height="4.13" transform="translate(402.88 515.03) rotate(180)" style="fill:#fff"></rect><rect x="134.79" y="221.41" width="3.16" height="3.62" transform="translate(272.75 446.45) rotate(180)" style="fill:#fff"></rect><rect x="129.31" y="221.41" width="3.16" height="3.62" transform="translate(261.79 446.45) rotate(180)" style="fill:#fff"></rect><rect x="134.79" y="226.86" width="3.16" height="3.62" transform="translate(272.75 457.34) rotate(180)" style="fill:#fff"></rect><rect x="129.31" y="226.86" width="3.16" height="3.62" transform="translate(261.79 457.34) rotate(180)" style="fill:#fff"></rect><rect x="134.79" y="232.31" width="3.16" height="3.62" transform="translate(272.75 468.23) rotate(180)" style="fill:#fff"></rect><rect x="129.31" y="232.31" width="3.16" height="3.62" transform="translate(261.79 468.23) rotate(180)" style="fill:#fff"></rect><rect x="134.79" y="237.75" width="3.16" height="3.62" transform="translate(272.75 479.13) rotate(180)" style="fill:#fff"></rect><rect x="129.31" y="237.75" width="3.16" height="3.62" transform="translate(261.79 479.13) rotate(180)" style="fill:#fff"></rect><rect x="134.79" y="243.33" width="3.16" height="3.62" transform="translate(272.75 490.29) rotate(180)" style="fill:#fff"></rect><rect x="129.31" y="243.33" width="3.16" height="3.62" transform="translate(261.79 490.29) rotate(180)" style="fill:#fff"></rect><rect x="134.79" y="248.92" width="3.16" height="3.62" transform="translate(272.75 501.45) rotate(180)" style="fill:#fff"></rect><rect x="129.31" y="248.92" width="3.16" height="3.62" transform="translate(261.79 501.45) rotate(180)" style="fill:#fff"></rect><rect x="134.79" y="254.5" width="3.16" height="3.62" transform="translate(272.75 512.62) rotate(180)" style="fill:#fff"></rect><rect x="129.31" y="254.5" width="3.16" height="3.62" transform="translate(261.79 512.62) rotate(180)" style="fill:#fff"></rect><rect x="134.79" y="260.08" width="3.16" height="3.62" transform="translate(272.75 523.78) rotate(180)" style="fill:#fff"></rect><rect x="129.31" y="260.08" width="3.16" height="3.62" transform="translate(261.79 523.78) rotate(180)" style="fill:#fff"></rect><rect x="134.79" y="265.72" width="3.16" height="3.62" transform="translate(272.75 535.06) rotate(180)" style="fill:#fff"></rect><rect x="129.31" y="265.72" width="3.16" height="3.62" transform="translate(261.79 535.06) rotate(180)" style="fill:#fff"></rect><rect x="134.79" y="271.36" width="3.16" height="3.62" transform="translate(272.75 546.34) rotate(180)" style="fill:#fff"></rect><rect x="129.31" y="271.36" width="3.16" height="3.62" transform="translate(261.79 546.34) rotate(180)" style="fill:#fff"></rect><rect x="134.79" y="277" width="3.16" height="3.62" transform="translate(272.75 557.63) rotate(180)" style="fill:#fff"></rect><rect x="129.31" y="277" width="3.16" height="3.62" transform="translate(261.79 557.63) rotate(180)" style="fill:#fff"></rect><rect x="57.58" y="189.44" width="3.16" height="4.27" transform="translate(118.33 383.15) rotate(180)" style="fill:#fff"></rect><rect x="52.1" y="189.44" width="3.16" height="4.27" transform="translate(107.37 383.15) rotate(180)" style="fill:#fff"></rect><rect x="57.58" y="195.86" width="3.16" height="4.26" transform="translate(118.33 395.98) rotate(180)" style="fill:#fff"></rect><rect x="52.1" y="195.86" width="3.16" height="4.26" transform="translate(107.37 395.98) rotate(180)" style="fill:#fff"></rect><rect x="57.58" y="202.28" width="3.16" height="4.26" transform="translate(118.33 408.82) rotate(180)" style="fill:#fff"></rect><rect x="52.1" y="202.28" width="3.16" height="4.26" transform="translate(107.37 408.82) rotate(180)" style="fill:#fff"></rect><rect x="57.58" y="208.69" width="3.16" height="4.26" transform="translate(118.33 421.65) rotate(180)" style="fill:#fff"></rect><rect x="52.1" y="208.69" width="3.16" height="4.26" transform="translate(107.37 421.65) rotate(180)" style="fill:#fff"></rect><rect x="57.58" y="215.27" width="3.16" height="4.27" transform="translate(118.33 434.8) rotate(180)" style="fill:#fff"></rect><rect x="52.1" y="215.27" width="3.16" height="4.27" transform="translate(107.37 434.8) rotate(180)" style="fill:#fff"></rect><rect x="57.58" y="221.85" width="3.16" height="4.26" transform="translate(118.33 447.96) rotate(180)" style="fill:#fff"></rect><rect x="52.1" y="221.85" width="3.16" height="4.26" transform="translate(107.37 447.96) rotate(180)" style="fill:#fff"></rect><rect x="57.58" y="228.42" width="3.16" height="4.26" transform="translate(118.33 461.11) rotate(180)" style="fill:#fff"></rect><rect x="52.1" y="228.42" width="3.16" height="4.26" transform="translate(107.37 461.11) rotate(180)" style="fill:#fff"></rect><rect x="57.58" y="235" width="3.16" height="4.26" transform="translate(118.33 474.26) rotate(180)" style="fill:#fff"></rect><rect x="52.1" y="235" width="3.16" height="4.26" transform="translate(107.37 474.26) rotate(180)" style="fill:#fff"></rect><rect x="57.58" y="241.64" width="3.16" height="4.26" transform="translate(118.33 487.55) rotate(180)" style="fill:#fff"></rect><rect x="52.1" y="241.64" width="3.16" height="4.26" transform="translate(107.37 487.55) rotate(180)" style="fill:#fff"></rect><rect x="57.58" y="248.29" width="3.16" height="4.26" transform="translate(118.33 500.84) rotate(180)" style="fill:#fff"></rect><rect x="52.1" y="248.29" width="3.16" height="4.26" transform="translate(107.37 500.84) rotate(180)" style="fill:#fff"></rect><rect x="57.58" y="254.93" width="3.16" height="4.26" transform="translate(118.33 514.13) rotate(180)" style="fill:#fff"></rect><rect x="52.1" y="254.93" width="3.16" height="4.26" transform="translate(107.37 514.13) rotate(180)" style="fill:#fff"></rect><rect x="57.58" y="261.58" width="3.16" height="4.26" transform="translate(118.33 527.43) rotate(180)" style="fill:#fff"></rect><rect x="52.1" y="261.58" width="3.16" height="4.26" transform="translate(107.37 527.43) rotate(180)" style="fill:#fff"></rect><rect x="123.07" y="221.41" width="3.16" height="3.62" transform="translate(249.31 446.45) rotate(180)" style="fill:#fff"></rect><rect x="117.59" y="221.41" width="3.16" height="3.62" transform="translate(238.35 446.45) rotate(180)" style="fill:#fff"></rect><rect x="123.07" y="215.83" width="3.16" height="3.62" transform="translate(249.31 435.28) rotate(180)" style="fill:#fff"></rect><rect x="117.59" y="215.83" width="3.16" height="3.62" transform="translate(238.35 435.28) rotate(180)" style="fill:#fff"></rect><rect x="123.07" y="210.24" width="3.16" height="3.62" transform="translate(249.31 424.11) rotate(180)" style="fill:#fff"></rect><rect x="117.59" y="210.24" width="3.16" height="3.62" transform="translate(238.35 424.11) rotate(180)" style="fill:#fff"></rect><rect x="123.07" y="226.86" width="3.16" height="3.62" transform="translate(249.31 457.34) rotate(180)" style="fill:#fff"></rect><rect x="117.59" y="226.86" width="3.16" height="3.62" transform="translate(238.35 457.34) rotate(180)" style="fill:#fff"></rect><rect x="123.07" y="232.31" width="3.16" height="3.62" transform="translate(249.31 468.23) rotate(180)" style="fill:#fff"></rect><rect x="117.59" y="232.31" width="3.16" height="3.62" transform="translate(238.35 468.23) rotate(180)" style="fill:#fff"></rect><rect x="123.07" y="237.75" width="3.16" height="3.62" transform="translate(249.31 479.13) rotate(180)" style="fill:#fff"></rect><rect x="117.59" y="237.75" width="3.16" height="3.62" transform="translate(238.35 479.13) rotate(180)" style="fill:#fff"></rect><rect x="123.07" y="243.33" width="3.16" height="3.62" transform="translate(249.31 490.29) rotate(180)" style="fill:#fff"></rect><rect x="117.59" y="243.33" width="3.16" height="3.62" transform="translate(238.35 490.29) rotate(180)" style="fill:#fff"></rect><rect x="123.07" y="248.92" width="3.16" height="3.62" transform="translate(249.31 501.45) rotate(180)" style="fill:#fff"></rect><rect x="117.59" y="248.92" width="3.16" height="3.62" transform="translate(238.35 501.45) rotate(180)" style="fill:#fff"></rect><rect x="123.07" y="254.5" width="3.16" height="3.62" transform="translate(249.31 512.62) rotate(180)" style="fill:#fff"></rect><rect x="117.59" y="254.5" width="3.16" height="3.62" transform="translate(238.35 512.62) rotate(180)" style="fill:#fff"></rect><rect x="123.07" y="260.08" width="3.16" height="3.62" transform="translate(249.31 523.78) rotate(180)" style="fill:#fff"></rect><rect x="117.59" y="260.08" width="3.16" height="3.62" transform="translate(238.35 523.78) rotate(180)" style="fill:#fff"></rect><rect x="123.07" y="265.72" width="3.16" height="3.62" transform="translate(249.31 535.06) rotate(180)" style="fill:#fff"></rect><rect x="117.59" y="265.72" width="3.16" height="3.62" transform="translate(238.35 535.06) rotate(180)" style="fill:#fff"></rect><rect x="123.07" y="271.36" width="3.16" height="3.62" transform="translate(249.31 546.34) rotate(180)" style="fill:#fff"></rect><rect x="117.59" y="271.36" width="3.16" height="3.62" transform="translate(238.35 546.34) rotate(180)" style="fill:#fff"></rect><rect x="123.07" y="277" width="3.16" height="3.62" transform="translate(249.31 557.63) rotate(180)" style="fill:#fff"></rect><rect x="117.59" y="277" width="3.16" height="3.62" transform="translate(238.35 557.63) rotate(180)" style="fill:#fff"></rect><polygon points="482.17 200.33 482.17 304.06 698.78 304.06 698.78 230.32 680.09 230.32 680.09 253.01 675.28 253.01 675.28 240.17 651.52 240.17 651.52 260.51 648.37 260.51 648.37 186.61 627.72 186.61 627.72 225.87 617.13 225.87 617.13 242.18 613.92 242.18 613.92 231.92 595.14 231.92 595.14 262.52 589.66 262.52 589.66 237.65 572.48 237.65 572.48 218.75 560.81 218.75 560.81 207.99 547.3 207.99 547.3 255.72 542.75 255.72 542.75 203.24 520.51 203.24 520.51 231.75 517.43 231.75 517.43 208.48 494.87 208.48 494.87 200.33 482.17 200.33" style="fill:#ebebeb"></polygon><rect x="693.33" y="233.17" width="3.16" height="4.34" transform="translate(1389.82 470.69) rotate(180)" style="fill:#fff"></rect><rect x="687.85" y="233.17" width="3.16" height="4.34" transform="translate(1378.86 470.69) rotate(180)" style="fill:#fff"></rect><rect x="682.37" y="233.17" width="3.16" height="4.34" transform="translate(1367.9 470.69) rotate(180)" style="fill:#fff"></rect><rect x="693.33" y="239.7" width="3.16" height="4.34" transform="translate(1389.82 483.74) rotate(180)" style="fill:#fff"></rect><rect x="687.85" y="239.7" width="3.16" height="4.34" transform="translate(1378.86 483.74) rotate(180)" style="fill:#fff"></rect><rect x="682.37" y="239.7" width="3.16" height="4.34" transform="translate(1367.9 483.74) rotate(180)" style="fill:#fff"></rect><rect x="693.33" y="246.23" width="3.16" height="4.34" transform="translate(1389.82 496.8) rotate(180)" style="fill:#fff"></rect><rect x="687.85" y="246.23" width="3.16" height="4.34" transform="translate(1378.86 496.8) rotate(180)" style="fill:#fff"></rect><rect x="682.37" y="246.23" width="3.16" height="4.34" transform="translate(1367.9 496.8) rotate(180)" style="fill:#fff"></rect><rect x="693.33" y="252.76" width="3.16" height="4.34" transform="translate(1389.82 509.86) rotate(180)" style="fill:#fff"></rect><rect x="687.85" y="252.76" width="3.16" height="4.34" transform="translate(1378.86 509.86) rotate(180)" style="fill:#fff"></rect><rect x="682.37" y="252.76" width="3.16" height="4.34" transform="translate(1367.9 509.86) rotate(180)" style="fill:#fff"></rect><rect x="583.86" y="240.75" width="3.16" height="3.62" transform="translate(1170.87 485.11) rotate(180)" style="fill:#fff"></rect><rect x="578.38" y="240.75" width="3.16" height="3.62" transform="translate(1159.91 485.11) rotate(180)" style="fill:#fff"></rect><rect x="572.89" y="240.75" width="3.16" height="3.62" transform="translate(1148.95 485.11) rotate(180)" style="fill:#fff"></rect><rect x="583.86" y="246.19" width="3.16" height="3.62" transform="translate(1170.87 496.01) rotate(180)" style="fill:#fff"></rect><rect x="578.38" y="246.19" width="3.16" height="3.62" transform="translate(1159.91 496.01) rotate(180)" style="fill:#fff"></rect><rect x="572.89" y="246.19" width="3.16" height="3.62" transform="translate(1148.95 496.01) rotate(180)" style="fill:#fff"></rect><rect x="583.86" y="251.64" width="3.16" height="3.62" transform="translate(1170.87 506.9) rotate(180)" style="fill:#fff"></rect><rect x="578.38" y="251.64" width="3.16" height="3.62" transform="translate(1159.91 506.9) rotate(180)" style="fill:#fff"></rect><rect x="572.89" y="251.64" width="3.16" height="3.62" transform="translate(1148.95 506.9) rotate(180)" style="fill:#fff"></rect><rect x="583.86" y="257.09" width="3.16" height="3.62" transform="translate(1170.87 517.79) rotate(180)" style="fill:#fff"></rect><rect x="578.38" y="257.09" width="3.16" height="3.62" transform="translate(1159.91 517.79) rotate(180)" style="fill:#fff"></rect><rect x="572.89" y="257.09" width="3.16" height="3.62" transform="translate(1148.95 517.79) rotate(180)" style="fill:#fff"></rect><rect x="583.86" y="262.67" width="3.16" height="3.62" transform="translate(1170.87 528.96) rotate(180)" style="fill:#fff"></rect><rect x="578.38" y="262.67" width="3.16" height="3.62" transform="translate(1159.91 528.96) rotate(180)" style="fill:#fff"></rect><rect x="572.89" y="262.67" width="3.16" height="3.62" transform="translate(1148.95 528.96) rotate(180)" style="fill:#fff"></rect><rect x="583.86" y="268.25" width="3.16" height="3.62" transform="translate(1170.87 540.12) rotate(180)" style="fill:#fff"></rect><rect x="578.38" y="268.25" width="3.16" height="3.62" transform="translate(1159.91 540.12) rotate(180)" style="fill:#fff"></rect><rect x="572.89" y="268.25" width="3.16" height="3.62" transform="translate(1148.95 540.12) rotate(180)" style="fill:#fff"></rect><rect x="583.86" y="273.83" width="3.16" height="3.62" transform="translate(1170.87 551.28) rotate(180)" style="fill:#fff"></rect><rect x="578.38" y="273.83" width="3.16" height="3.62" transform="translate(1159.91 551.28) rotate(180)" style="fill:#fff"></rect><rect x="572.89" y="273.83" width="3.16" height="3.62" transform="translate(1148.95 551.28) rotate(180)" style="fill:#fff"></rect><rect x="583.86" y="279.41" width="3.16" height="3.62" transform="translate(1170.87 562.45) rotate(180)" style="fill:#fff"></rect><rect x="578.38" y="279.41" width="3.16" height="3.62" transform="translate(1159.91 562.45) rotate(180)" style="fill:#fff"></rect><rect x="572.89" y="279.41" width="3.16" height="3.62" transform="translate(1148.95 562.45) rotate(180)" style="fill:#fff"></rect><rect x="654.38" y="242.95" width="18.2" height="2.71" transform="translate(1326.97 488.61) rotate(180)" style="fill:#fff"></rect><rect x="654.38" y="248.21" width="18.2" height="2.71" transform="translate(1326.97 499.14) rotate(180)" style="fill:#fff"></rect><rect x="654.38" y="253.48" width="18.2" height="2.71" transform="translate(1326.97 509.67) rotate(180)" style="fill:#fff"></rect><rect x="654.38" y="258.75" width="18.2" height="2.71" transform="translate(1326.97 520.21) rotate(180)" style="fill:#fff"></rect><rect x="654.38" y="264.01" width="18.2" height="2.71" transform="translate(1326.97 530.74) rotate(180)" style="fill:#fff"></rect><rect x="654.38" y="269.28" width="18.2" height="2.71" transform="translate(1326.97 541.27) rotate(180)" style="fill:#fff"></rect><rect x="654.38" y="274.54" width="18.2" height="2.71" transform="translate(1326.97 551.8) rotate(180)" style="fill:#fff"></rect><rect x="654.38" y="279.81" width="18.2" height="2.71" transform="translate(1326.97 562.33) rotate(180)" style="fill:#fff"></rect><rect x="523.33" y="205.77" width="16.74" height="2.71" transform="translate(1063.4 414.26) rotate(180)" style="fill:#fff"></rect><rect x="523.33" y="211.04" width="16.74" height="2.71" transform="translate(1063.4 424.79) rotate(180)" style="fill:#fff"></rect><rect x="523.33" y="216.3" width="16.74" height="2.71" transform="translate(1063.4 435.32) rotate(180)" style="fill:#fff"></rect><rect x="523.33" y="221.57" width="16.74" height="2.71" transform="translate(1063.4 445.85) rotate(180)" style="fill:#fff"></rect><rect x="523.33" y="226.84" width="16.74" height="2.71" style="fill:#fff"></rect><rect x="523.33" y="232.1" width="16.74" height="2.71" transform="translate(1063.4 466.92) rotate(180)" style="fill:#fff"></rect><rect x="523.33" y="237.37" width="16.74" height="2.71" transform="translate(1063.4 477.45) rotate(180)" style="fill:#fff"></rect><rect x="523.33" y="242.63" width="16.74" height="2.71" transform="translate(1063.4 487.98) rotate(180)" style="fill:#fff"></rect><rect x="523.33" y="247.64" width="16.74" height="2.71" transform="translate(1063.4 497.99) rotate(180)" style="fill:#fff"></rect><rect x="523.33" y="252.64" width="16.74" height="2.71" transform="translate(1063.4 507.99) rotate(180)" style="fill:#fff"></rect><rect x="523.33" y="257.64" width="16.74" height="2.71" transform="translate(1063.4 518) rotate(180)" style="fill:#fff"></rect><rect x="523.33" y="262.65" width="16.74" height="2.71" transform="translate(1063.4 528.01) rotate(180)" style="fill:#fff"></rect><rect x="496.27" y="212.13" width="17.68" height="2.71" transform="translate(1010.22 426.98) rotate(180)" style="fill:#fff"></rect><rect x="496.27" y="217.4" width="17.68" height="2.71" transform="translate(1010.22 437.51) rotate(180)" style="fill:#fff"></rect><rect x="496.27" y="222.66" width="17.68" height="2.71" transform="translate(1010.22 448.04) rotate(180)" style="fill:#fff"></rect><rect x="496.27" y="227.93" width="17.68" height="2.71" transform="translate(1010.22 458.57) rotate(180)" style="fill:#fff"></rect><rect x="496.27" y="233.2" width="17.68" height="2.71" transform="translate(1010.22 469.11) rotate(180)" style="fill:#fff"></rect><rect x="496.27" y="238.46" width="17.68" height="2.71" transform="translate(1010.22 479.64) rotate(180)" style="fill:#fff"></rect><rect x="496.27" y="243.73" width="17.68" height="2.71" transform="translate(1010.22 490.17) rotate(180)" style="fill:#fff"></rect><rect x="496.27" y="248.99" width="17.68" height="2.71" transform="translate(1010.22 500.7) rotate(180)" style="fill:#fff"></rect><rect x="496.27" y="253.71" width="17.68" height="2.71" transform="translate(1010.22 510.13) rotate(180)" style="fill:#fff"></rect><rect x="496.27" y="258.42" width="17.68" height="2.71" transform="translate(1010.22 519.55) rotate(180)" style="fill:#fff"></rect><rect x="496.27" y="263.13" width="17.68" height="2.71" transform="translate(1010.22 528.98) rotate(180)" style="fill:#fff"></rect><rect x="602.81" y="234.38" width="5.62" height="2.62" transform="translate(1211.24 471.38) rotate(180)" style="fill:#fff"></rect><rect x="602.81" y="239.46" width="5.62" height="2.62" transform="translate(1211.24 481.55) rotate(180)" style="fill:#fff"></rect><rect x="602.81" y="244.55" width="5.62" height="2.62" transform="translate(1211.24 491.72) rotate(180)" style="fill:#fff"></rect><rect x="602.81" y="249.63" width="5.62" height="2.62" transform="translate(1211.24 501.89) rotate(180)" style="fill:#fff"></rect><rect x="602.81" y="254.72" width="5.62" height="2.62" transform="translate(1211.24 512.06) rotate(180)" style="fill:#fff"></rect><rect x="602.81" y="259.8" width="5.62" height="2.62" transform="translate(1211.24 522.23) rotate(180)" style="fill:#fff"></rect><rect x="602.81" y="264.89" width="5.62" height="2.62" transform="translate(1211.24 532.4) rotate(180)" style="fill:#fff"></rect><rect x="602.81" y="269.97" width="5.62" height="2.62" transform="translate(1211.24 542.57) rotate(180)" style="fill:#fff"></rect><rect x="595.16" y="234.38" width="5.62" height="2.62" transform="translate(1195.94 471.38) rotate(180)" style="fill:#fff"></rect><rect x="595.16" y="239.46" width="5.62" height="2.62" transform="translate(1195.94 481.55) rotate(180)" style="fill:#fff"></rect><rect x="595.16" y="244.55" width="5.62" height="2.62" transform="translate(1195.94 491.72) rotate(180)" style="fill:#fff"></rect><rect x="595.16" y="249.63" width="5.62" height="2.62" transform="translate(1195.94 501.89) rotate(180)" style="fill:#fff"></rect><rect x="595.16" y="254.72" width="5.62" height="2.62" transform="translate(1195.94 512.06) rotate(180)" style="fill:#fff"></rect><rect x="595.16" y="259.8" width="5.62" height="2.62" transform="translate(1195.94 522.23) rotate(180)" style="fill:#fff"></rect><rect x="595.16" y="264.89" width="5.62" height="2.62" transform="translate(1195.94 532.4) rotate(180)" style="fill:#fff"></rect><rect x="595.16" y="269.97" width="5.62" height="2.62" transform="translate(1195.94 542.57) rotate(180)" style="fill:#fff"></rect><rect x="639.38" y="189.03" width="5.86" height="4.13" transform="translate(1284.62 382.18) rotate(180)" style="fill:#fff"></rect><rect x="630.65" y="189.03" width="5.86" height="4.13" transform="translate(1267.16 382.18) rotate(180)" style="fill:#fff"></rect><rect x="639.38" y="195.1" width="5.86" height="4.13" transform="translate(1284.62 394.33) rotate(180)" style="fill:#fff"></rect><rect x="630.65" y="195.1" width="5.86" height="4.13" transform="translate(1267.16 394.33) rotate(180)" style="fill:#fff"></rect><rect x="639.38" y="201.17" width="5.86" height="4.13" transform="translate(1284.62 406.47) rotate(180)" style="fill:#fff"></rect><rect x="630.65" y="201.17" width="5.86" height="4.13" transform="translate(1267.16 406.47) rotate(180)" style="fill:#fff"></rect><rect x="639.38" y="207.24" width="5.86" height="4.13" transform="translate(1284.62 418.61) rotate(180)" style="fill:#fff"></rect><rect x="630.65" y="207.24" width="5.86" height="4.13" transform="translate(1267.16 418.61) rotate(180)" style="fill:#fff"></rect><rect x="639.38" y="213.31" width="5.86" height="4.13" transform="translate(1284.62 430.76) rotate(180)" style="fill:#fff"></rect><rect x="630.65" y="213.31" width="5.86" height="4.13" transform="translate(1267.16 430.76) rotate(180)" style="fill:#fff"></rect><rect x="639.38" y="219.38" width="5.86" height="4.13" transform="translate(1284.62 442.9) rotate(180)" style="fill:#fff"></rect><rect x="630.65" y="219.38" width="5.86" height="4.13" transform="translate(1267.16 442.9) rotate(180)" style="fill:#fff"></rect><rect x="639.38" y="225.45" width="5.86" height="4.13" transform="translate(1284.62 455.04) rotate(180)" style="fill:#fff"></rect><rect x="630.65" y="225.45" width="5.86" height="4.13" transform="translate(1267.16 455.04) rotate(180)" style="fill:#fff"></rect><rect x="619.83" y="227.66" width="5.86" height="4.13" transform="translate(1245.52 459.45) rotate(180)" style="fill:#fff"></rect><rect x="619.83" y="233.73" width="5.86" height="4.13" transform="translate(1245.52 471.59) rotate(180)" style="fill:#fff"></rect><rect x="619.83" y="239.8" width="5.86" height="4.13" transform="translate(1245.52 483.73) rotate(180)" style="fill:#fff"></rect><rect x="619.83" y="245.87" width="5.86" height="4.13" transform="translate(1245.52 495.87) rotate(180)" style="fill:#fff"></rect><rect x="619.83" y="251.94" width="5.86" height="4.13" transform="translate(1245.52 508.02) rotate(180)" style="fill:#fff"></rect><rect x="619.83" y="258.01" width="5.86" height="4.13" transform="translate(1245.52 520.16) rotate(180)" style="fill:#fff"></rect><rect x="639.38" y="231.45" width="5.86" height="4.13" transform="translate(1284.62 467.04) rotate(180)" style="fill:#fff"></rect><rect x="630.65" y="231.45" width="5.86" height="4.13" transform="translate(1267.16 467.04) rotate(180)" style="fill:#fff"></rect><rect x="619.83" y="264.01" width="5.86" height="4.13" transform="translate(1245.52 532.16) rotate(180)" style="fill:#fff"></rect><rect x="639.38" y="237.45" width="5.86" height="4.13" transform="translate(1284.62 479.04) rotate(180)" style="fill:#fff"></rect><rect x="630.65" y="237.45" width="5.86" height="4.13" transform="translate(1267.16 479.04) rotate(180)" style="fill:#fff"></rect><rect x="619.83" y="270.01" width="5.86" height="4.13" transform="translate(1245.52 544.15) rotate(180)" style="fill:#fff"></rect><rect x="639.38" y="243.45" width="5.86" height="4.13" transform="translate(1284.62 491.03) rotate(180)" style="fill:#fff"></rect><rect x="630.65" y="243.45" width="5.86" height="4.13" transform="translate(1267.16 491.03) rotate(180)" style="fill:#fff"></rect><rect x="619.83" y="276.01" width="5.86" height="4.13" transform="translate(1245.52 556.15) rotate(180)" style="fill:#fff"></rect><rect x="639.38" y="249.45" width="5.86" height="4.13" transform="translate(1284.62 503.03) rotate(180)" style="fill:#fff"></rect><rect x="630.65" y="249.45" width="5.86" height="4.13" transform="translate(1267.16 503.03) rotate(180)" style="fill:#fff"></rect><rect x="639.38" y="255.45" width="5.86" height="4.13" transform="translate(1284.62 515.03) rotate(180)" style="fill:#fff"></rect><rect x="630.65" y="255.45" width="5.86" height="4.13" transform="translate(1267.16 515.03) rotate(180)" style="fill:#fff"></rect><rect x="566.94" y="221.41" width="3.16" height="3.62" transform="translate(1137.03 446.45) rotate(180)" style="fill:#fff"></rect><rect x="561.45" y="221.41" width="3.16" height="3.62" transform="translate(1126.07 446.45) rotate(180)" style="fill:#fff"></rect><rect x="566.94" y="226.86" width="3.16" height="3.62" transform="translate(1137.03 457.34) rotate(180)" style="fill:#fff"></rect><rect x="561.45" y="226.86" width="3.16" height="3.62" transform="translate(1126.07 457.34) rotate(180)" style="fill:#fff"></rect><rect x="566.94" y="232.31" width="3.16" height="3.62" transform="translate(1137.03 468.23) rotate(180)" style="fill:#fff"></rect><rect x="561.45" y="232.31" width="3.16" height="3.62" transform="translate(1126.07 468.23) rotate(180)" style="fill:#fff"></rect><rect x="566.94" y="237.75" width="3.16" height="3.62" transform="translate(1137.03 479.13) rotate(180)" style="fill:#fff"></rect><rect x="561.45" y="237.75" width="3.16" height="3.62" transform="translate(1126.07 479.13) rotate(180)" style="fill:#fff"></rect><rect x="566.94" y="243.33" width="3.16" height="3.62" transform="translate(1137.03 490.29) rotate(180)" style="fill:#fff"></rect><rect x="561.45" y="243.33" width="3.16" height="3.62" transform="translate(1126.07 490.29) rotate(180)" style="fill:#fff"></rect><rect x="566.94" y="248.92" width="3.16" height="3.62" transform="translate(1137.03 501.45) rotate(180)" style="fill:#fff"></rect><rect x="561.45" y="248.92" width="3.16" height="3.62" transform="translate(1126.07 501.45) rotate(180)" style="fill:#fff"></rect><rect x="566.94" y="254.5" width="3.16" height="3.62" transform="translate(1137.03 512.62) rotate(180)" style="fill:#fff"></rect><rect x="561.45" y="254.5" width="3.16" height="3.62" transform="translate(1126.07 512.62) rotate(180)" style="fill:#fff"></rect><rect x="566.94" y="260.08" width="3.16" height="3.62" transform="translate(1137.03 523.78) rotate(180)" style="fill:#fff"></rect><rect x="561.45" y="260.08" width="3.16" height="3.62" transform="translate(1126.07 523.78) rotate(180)" style="fill:#fff"></rect><rect x="566.94" y="265.72" width="3.16" height="3.62" transform="translate(1137.03 535.06) rotate(180)" style="fill:#fff"></rect><rect x="561.45" y="265.72" width="3.16" height="3.62" transform="translate(1126.07 535.06) rotate(180)" style="fill:#fff"></rect><rect x="566.94" y="271.36" width="3.16" height="3.62" transform="translate(1137.03 546.34) rotate(180)" style="fill:#fff"></rect><rect x="561.45" y="271.36" width="3.16" height="3.62" transform="translate(1126.07 546.34) rotate(180)" style="fill:#fff"></rect><rect x="566.94" y="277" width="3.16" height="3.62" transform="translate(1137.03 557.63) rotate(180)" style="fill:#fff"></rect><rect x="561.45" y="277" width="3.16" height="3.62" transform="translate(1126.07 557.63) rotate(180)" style="fill:#fff"></rect><rect x="489.72" y="202.28" width="3.16" height="4.26" transform="translate(982.61 408.82) rotate(180)" style="fill:#fff"></rect><rect x="484.24" y="202.28" width="3.16" height="4.26" transform="translate(971.65 408.82) rotate(180)" style="fill:#fff"></rect><rect x="489.72" y="208.69" width="3.16" height="4.26" transform="translate(982.61 421.65) rotate(180)" style="fill:#fff"></rect><rect x="484.24" y="208.69" width="3.16" height="4.26" transform="translate(971.65 421.65) rotate(180)" style="fill:#fff"></rect><rect x="489.72" y="215.27" width="3.16" height="4.27" transform="translate(982.61 434.8) rotate(180)" style="fill:#fff"></rect><rect x="484.24" y="215.27" width="3.16" height="4.27" transform="translate(971.65 434.8) rotate(180)" style="fill:#fff"></rect><rect x="489.72" y="221.85" width="3.16" height="4.26" transform="translate(982.61 447.96) rotate(180)" style="fill:#fff"></rect><rect x="484.24" y="221.85" width="3.16" height="4.26" transform="translate(971.65 447.96) rotate(180)" style="fill:#fff"></rect><rect x="489.72" y="228.42" width="3.16" height="4.26" transform="translate(982.61 461.11) rotate(180)" style="fill:#fff"></rect><rect x="484.24" y="228.42" width="3.16" height="4.26" transform="translate(971.65 461.11) rotate(180)" style="fill:#fff"></rect><rect x="489.72" y="235" width="3.16" height="4.26" transform="translate(982.61 474.26) rotate(180)" style="fill:#fff"></rect><rect x="484.24" y="235" width="3.16" height="4.26" transform="translate(971.65 474.26) rotate(180)" style="fill:#fff"></rect><rect x="489.72" y="241.64" width="3.16" height="4.26" transform="translate(982.61 487.55) rotate(180)" style="fill:#fff"></rect><rect x="484.24" y="241.64" width="3.16" height="4.26" transform="translate(971.65 487.55) rotate(180)" style="fill:#fff"></rect><rect x="489.72" y="248.29" width="3.16" height="4.26" transform="translate(982.61 500.84) rotate(180)" style="fill:#fff"></rect><rect x="484.24" y="248.29" width="3.16" height="4.26" transform="translate(971.65 500.84) rotate(180)" style="fill:#fff"></rect><rect x="489.72" y="254.93" width="3.16" height="4.26" transform="translate(982.61 514.13) rotate(180)" style="fill:#fff"></rect><rect x="484.24" y="254.93" width="3.16" height="4.26" transform="translate(971.65 514.13) rotate(180)" style="fill:#fff"></rect><rect x="489.72" y="261.58" width="3.16" height="4.26" transform="translate(982.61 527.43) rotate(180)" style="fill:#fff"></rect><rect x="484.24" y="261.58" width="3.16" height="4.26" transform="translate(971.65 527.43) rotate(180)" style="fill:#fff"></rect><rect x="555.22" y="221.41" width="3.16" height="3.62" transform="translate(1113.59 446.45) rotate(180)" style="fill:#fff"></rect><rect x="549.73" y="221.41" width="3.16" height="3.62" transform="translate(1102.63 446.45) rotate(180)" style="fill:#fff"></rect><rect x="555.22" y="215.83" width="3.16" height="3.62" transform="translate(1113.59 435.28) rotate(180)" style="fill:#fff"></rect><rect x="549.73" y="215.83" width="3.16" height="3.62" transform="translate(1102.63 435.28) rotate(180)" style="fill:#fff"></rect><rect x="555.22" y="210.24" width="3.16" height="3.62" transform="translate(1113.59 424.11) rotate(180)" style="fill:#fff"></rect><rect x="549.73" y="210.24" width="3.16" height="3.62" transform="translate(1102.63 424.11) rotate(180)" style="fill:#fff"></rect><rect x="555.22" y="226.86" width="3.16" height="3.62" transform="translate(1113.59 457.34) rotate(180)" style="fill:#fff"></rect><rect x="549.73" y="226.86" width="3.16" height="3.62" transform="translate(1102.63 457.34) rotate(180)" style="fill:#fff"></rect><rect x="555.22" y="232.31" width="3.16" height="3.62" transform="translate(1113.59 468.23) rotate(180)" style="fill:#fff"></rect><rect x="549.73" y="232.31" width="3.16" height="3.62" transform="translate(1102.63 468.23) rotate(180)" style="fill:#fff"></rect><rect x="555.22" y="237.75" width="3.16" height="3.62" transform="translate(1113.59 479.13) rotate(180)" style="fill:#fff"></rect><rect x="549.73" y="237.75" width="3.16" height="3.62" transform="translate(1102.63 479.13) rotate(180)" style="fill:#fff"></rect><rect x="555.22" y="243.33" width="3.16" height="3.62" transform="translate(1113.59 490.29) rotate(180)" style="fill:#fff"></rect><rect x="549.73" y="243.33" width="3.16" height="3.62" transform="translate(1102.63 490.29) rotate(180)" style="fill:#fff"></rect><rect x="555.22" y="248.92" width="3.16" height="3.62" transform="translate(1113.59 501.45) rotate(180)" style="fill:#fff"></rect><rect x="549.73" y="248.92" width="3.16" height="3.62" transform="translate(1102.63 501.45) rotate(180)" style="fill:#fff"></rect><rect x="555.22" y="254.5" width="3.16" height="3.62" transform="translate(1113.59 512.62) rotate(180)" style="fill:#fff"></rect><rect x="549.73" y="254.5" width="3.16" height="3.62" transform="translate(1102.63 512.62) rotate(180)" style="fill:#fff"></rect><rect x="555.22" y="260.08" width="3.16" height="3.62" transform="translate(1113.59 523.78) rotate(180)" style="fill:#fff"></rect><rect x="549.73" y="260.08" width="3.16" height="3.62" transform="translate(1102.63 523.78) rotate(180)" style="fill:#fff"></rect><rect x="555.22" y="265.72" width="3.16" height="3.62" transform="translate(1113.59 535.06) rotate(180)" style="fill:#fff"></rect><rect x="549.73" y="265.72" width="3.16" height="3.62" transform="translate(1102.63 535.06) rotate(180)" style="fill:#fff"></rect><rect x="555.22" y="271.36" width="3.16" height="3.62" transform="translate(1113.59 546.34) rotate(180)" style="fill:#fff"></rect><rect x="549.73" y="271.36" width="3.16" height="3.62" transform="translate(1102.63 546.34) rotate(180)" style="fill:#fff"></rect><rect x="555.22" y="277" width="3.16" height="3.62" transform="translate(1113.59 557.63) rotate(180)" style="fill:#fff"></rect><rect x="549.73" y="277" width="3.16" height="3.62" transform="translate(1102.63 557.63) rotate(180)" style="fill:#fff"></rect><path d="M556.05,94.05H474.43s8.1-22.11,20.55-22.11S511.34,87.2,511.34,87.2s8.4-8.29,15.3-8.29,12.91,11,12.91,11S549.3,84,556.05,94.05Z" style="fill:#ebebeb"></path><path d="M288.56,106.4H250.42s8.52-12.35,15.24-12.35,8.7,8.23,8.7,8.23,4.74-3.84,9.13-3.16S288.56,106.4,288.56,106.4Z" style="fill:#ebebeb;opacity:0.5"></path><path d="M132.75,99.93H80.42S92.11,83,101.33,83s11.93,11.29,11.93,11.29S119.76,89,125.78,90,132.75,99.93,132.75,99.93Z" style="fill:#ebebeb;opacity:0.5"></path><path d="M669.58,142.93H631.44s8.52-12.35,15.23-12.35,8.7,8.23,8.7,8.23,4.74-3.84,9.13-3.16S669.58,142.93,669.58,142.93Z" style="fill:#ebebeb;opacity:0.5"></path><path d="M217.85,147.63H143.56s10.17-22.72,21.05-24.13,16.09,16.87,16.09,16.87,7-6.46,12.54-6.46,9.78,8.51,9.78,8.51S214.06,136.59,217.85,147.63Z" style="fill:#ebebeb"></path><path d="M440.16,146.11H390s8.62-16.45,18-16.69,14.27,12.45,14.27,12.45S436.77,130.2,440.16,146.11Z" style="fill:#ebebeb;opacity:0.5"></path></g><g id="freepik--Shadow--inject-43"><ellipse cx="375" cy="416.92" rx="288.38" ry="37.35" style="fill:#ebebeb"></ellipse></g><g id="freepik--Floor--inject-43"><rect x="47.51" y="304.04" width="654.98" height="10.58" style="fill:#c7c7c7"></rect><path d="M81.21,304a28.23,28.23,0,0,1,0,10.58,24.37,24.37,0,0,1-.5-5.29A25,25,0,0,1,81.21,304Z" style="fill:#263238"></path><path d="M120.38,304a25,25,0,0,1,.5,5.29,24.37,24.37,0,0,1-.5,5.29,25,25,0,0,1-.5-5.29A25.62,25.62,0,0,1,120.38,304Z" style="fill:#263238"></path><path d="M159.55,304a28.23,28.23,0,0,1,0,10.58,28.23,28.23,0,0,1,0-10.58Z" style="fill:#263238"></path><path d="M198.73,304a28.8,28.8,0,0,1,0,10.58,28.23,28.23,0,0,1,0-10.58Z" style="fill:#263238"></path><path d="M237.9,304a28.23,28.23,0,0,1,0,10.58,28.23,28.23,0,0,1,0-10.58Z" style="fill:#263238"></path><path d="M277.07,304a25.62,25.62,0,0,1,.5,5.29,25,25,0,0,1-.5,5.29,24.37,24.37,0,0,1-.5-5.29A25.62,25.62,0,0,1,277.07,304Z" style="fill:#263238"></path><path d="M316.24,304a25,25,0,0,1,.5,5.29,24.37,24.37,0,0,1-.5,5.29,28.23,28.23,0,0,1,0-10.58Z" style="fill:#263238"></path><path d="M355.41,304a28.23,28.23,0,0,1,0,10.58,28.23,28.23,0,0,1,0-10.58Z" style="fill:#263238"></path><path d="M394.59,304a28.23,28.23,0,0,1,0,10.58,28.23,28.23,0,0,1,0-10.58Z" style="fill:#263238"></path><path d="M433.76,304a28.23,28.23,0,0,1,0,10.58,24.37,24.37,0,0,1-.5-5.29A25,25,0,0,1,433.76,304Z" style="fill:#263238"></path><path d="M472.93,304a25.62,25.62,0,0,1,.5,5.29,24.37,24.37,0,0,1-.5,5.29,25,25,0,0,1-.5-5.29A25.62,25.62,0,0,1,472.93,304Z" style="fill:#263238"></path><path d="M512.1,304a28.23,28.23,0,0,1,0,10.58,28.23,28.23,0,0,1,0-10.58Z" style="fill:#263238"></path><path d="M551.28,304a28.8,28.8,0,0,1,0,10.58,28.23,28.23,0,0,1,0-10.58Z" style="fill:#263238"></path><path d="M590.45,304a28.23,28.23,0,0,1,0,10.58,28.23,28.23,0,0,1,0-10.58Z" style="fill:#263238"></path><path d="M629.62,304a25.62,25.62,0,0,1,.5,5.29,25,25,0,0,1-.5,5.29,24.37,24.37,0,0,1-.5-5.29A25,25,0,0,1,629.62,304Z" style="fill:#263238"></path><path d="M668.79,304a25,25,0,0,1,.5,5.29,24.37,24.37,0,0,1-.5,5.29,28.23,28.23,0,0,1,0-10.58Z" style="fill:#263238"></path><polygon points="41.23 314.62 124.68 314.37 208.12 314.29 375 314.12 541.88 314.29 625.32 314.37 708.76 314.62 625.32 314.86 541.88 314.95 375 315.12 208.12 314.95 124.68 314.86 41.23 314.62" style="fill:#263238"></polygon></g><g id="freepik--Trees--inject-43"><path d="M83.7,220.5s22.6,50.19-14.29,50.24-13-51.92-13-51.92-8.54-3.74,1.33-31.77S72,159,76.12,159c5.2,0,10,12.12,6.52,30.74C82.64,189.76,95.65,213,83.7,220.5Z" style="fill:#37474f"></path><polygon points="66.17 304.04 69.65 228.39 73.28 304.03 66.17 304.04" style="fill:#263238"></polygon><polygon points="68.23 260.11 81.63 244.43 71.13 262.18 68.23 260.11" style="fill:#263238"></polygon><path d="M87.72,225.93s-10.53-4.16-18.86,10.38c-8.55,14.91,2.2,24.71,10.71,18.86,0,0,6.69,14,20.05,10.66s15.52-14,15.52-14,11.85.82,12.18-8S119,227.07,119,227.07s-.53-22-14.89-21.86S87.72,225.93,87.72,225.93Z" style="fill:#455a64"></path><polygon points="97.57 304.04 100.51 238.44 103.59 304.04 97.57 304.04" style="fill:#263238"></polygon><polygon points="99.64 263.1 90.4 244.71 101.16 260.22 99.64 263.1" style="fill:#263238"></polygon><path d="M694.36,220.5s22.6,50.19-14.29,50.24-13-51.92-13-51.92-8.54-3.74,1.33-31.77,14.31-28,18.42-28c5.2,0,10.05,12.12,6.53,30.74C693.31,189.76,706.31,213,694.36,220.5Z" style="fill:#37474f"></path><polygon points="676.84 304.04 680.31 228.39 683.95 304.03 676.84 304.04" style="fill:#263238"></polygon><polygon points="678.9 260.11 692.29 244.43 681.79 262.18 678.9 260.11" style="fill:#263238"></polygon><path d="M167.08,230.9s-19.7,44,12.62,44S191,229.37,191,229.37s7.48-3.3-1.23-27.82S177.21,177,173.61,177c-4.56,0-8.78,10.63-5.66,26.93C168,204,156.6,224.32,167.08,230.9Z" style="fill:#37474f"></path><polygon points="182.6 304.04 179.41 237.78 176.37 304.04 182.6 304.04" style="fill:#263238"></polygon><polygon points="180.71 265.56 168.95 251.85 178.18 267.37 180.71 265.56" style="fill:#263238"></polygon><path d="M627.92,225.93s-10.52-4.16-18.86,10.38c-8.54,14.91,2.2,24.71,10.71,18.86,0,0,6.7,14,20.06,10.66s15.51-14,15.51-14,11.86.82,12.18-8-8.36-16.69-8.36-16.69-.53-22-14.89-21.86S627.92,225.93,627.92,225.93Z" style="fill:#455a64"></path><polygon points="637.78 304.04 640.71 238.44 643.79 304.04 637.78 304.04" style="fill:#263238"></polygon><polygon points="639.81 263.02 630.61 244.71 641.63 260.19 639.81 263.02" style="fill:#263238"></polygon></g><g id="freepik--Car--inject-43"><path d="M232.88,256.85l.69-2.38s-8.81-9.45-11.34-10.61-18,1.75-18.87,3.12-.51,7.33-.3,8.38,14,3.41,16.32,3.51S232.88,256.85,232.88,256.85Z" style="fill:#FFC100"></path><path d="M233.57,254.47l-.69,2.38s5.86,4.43,6.08,4.69-.14,1.52-.14,1.52h5.94v-8.59a13.94,13.94,0,0,1-2.78,1.19C241.13,255.81,233.57,254.47,233.57,254.47Z" style="fill:#FFC100"></path><g style="opacity:0.1"><path d="M232.88,256.85l.69-2.38s-8.81-9.45-11.34-10.61-18,1.75-18.87,3.12-.51,7.33-.3,8.38,14,3.41,16.32,3.51S232.88,256.85,232.88,256.85Z"></path><path d="M233.57,254.47l-.69,2.38s5.86,4.43,6.08,4.69-.14,1.52-.14,1.52h5.94v-8.59a13.94,13.94,0,0,1-2.78,1.19C241.13,255.81,233.57,254.47,233.57,254.47Z"></path></g><path d="M342.47,347.7c.63,23,9.75,51.12,30.09,51.12,2,0,29.22.52,31-.07,16.39-5.44,26.1-35.33,24.26-61.68-1.44-20.52-8-43.51-25.1-46.27-1.14-.18-29.78,0-31,0C351.17,290.8,341.78,323,342.47,347.7Z" style="fill:#263238"></path><path d="M375.1,347.7c.64,23,9.76,51.12,30.09,51.12s29.64-32.54,27.59-61.75c-1.53-21.89-8.59-46.27-28.45-46.27C383.81,290.8,374.42,323,375.1,347.7Z" style="fill:#37474f"></path><path d="M383.57,347c.52,17.68,7.32,39.37,22.35,39.37s21.83-25.06,20.26-47.55c-1.18-16.86-6.45-35.63-21.13-35.63C389.88,303.22,383,328,383.57,347Z" style="fill:#c7c7c7"></path><path d="M409.86,307c-.31,7.19-1.39,30.08-2.95,30.08-1.32,0-5.17-21.61-6.53-29.42a11.43,11.43,0,0,1,5.31-1.31A13.35,13.35,0,0,1,409.86,307Z" style="fill:#263238"></path><path d="M404.09,338.48c-.83.62-8.19-9.7-13.54-17.44a32.59,32.59,0,0,1,4.82-9C398.84,320.89,405.22,337.64,404.09,338.48Z" style="fill:#263238"></path><path d="M402.7,341.14c-.38.94-8.29-2.68-15.42-6.16a70,70,0,0,1,1.61-8.56C395.42,332.47,403.16,340,402.7,341.14Z" style="fill:#263238"></path><path d="M402,344.37c.07,1.08-7.94,2.6-15.21,3.76l-.06-1.27c-.07-2.3,0-4.68.13-7.1C394.1,341.26,401.87,343.16,402,344.37Z" style="fill:#263238"></path><path d="M389,363.11a71.17,71.17,0,0,1-1.84-9.78c7-3.24,15.12-6.73,15.73-5.61S395.1,357.23,389,363.11Z" style="fill:#263238"></path><path d="M397.66,379.56a27.47,27.47,0,0,1-6.44-9.86c4.48-7.65,12.15-20.33,13.34-19.52S399.61,372.83,397.66,379.56Z" style="fill:#263238"></path><path d="M413.35,381a11.14,11.14,0,0,1-6.68,2.24,11.85,11.85,0,0,1-2.76-.31c.24-6,1.34-30.91,3-30.91C408.18,352,411.93,372.85,413.35,381Z" style="fill:#263238"></path><path d="M422,366.46a37.56,37.56,0,0,1-4.07,9.44c-3.48-8.91-9.08-23.75-8-24.55C410.69,350.78,416.91,359.24,422,366.46Z" style="fill:#263238"></path><path d="M424.42,353.33a73.76,73.76,0,0,1-1.12,7.83c-5.7-5.38-11.56-11.26-11.14-12.3C412.48,348,418.36,350.51,424.42,353.33Z" style="fill:#263238"></path><path d="M424.7,341.74c.1,2.42.11,4.86,0,7.28-6-1.27-11.67-2.74-11.74-3.79S418.64,342.93,424.7,341.74Z" style="fill:#263238"></path><path d="M424.39,337.13c-5.85,2.78-11.71,5.25-12.22,4.28s5.56-7.66,10.93-13.27A81.4,81.4,0,0,1,424.39,337.13Z" style="fill:#263238"></path><path d="M421.42,321.62s0,0,0,0c-4.33,7.48-10.41,17.54-11.47,16.81s3.71-19.53,5.82-27.4A29.22,29.22,0,0,1,421.42,321.62Z" style="fill:#263238"></path><path d="M112.22,347.7c.63,23,9.75,51.12,30.09,51.12,2,0,29.22.52,31-.07,16.39-5.44,26.1-35.33,24.26-61.68-1.44-20.52-8-43.51-25.1-46.27-1.14-.18-29.78,0-31,0C120.92,290.8,111.54,323,112.22,347.7Z" style="fill:#263238"></path><path d="M144.86,347.7c.63,23,9.75,51.12,30.08,51.12s29.64-32.54,27.6-61.75c-1.54-21.89-8.6-46.27-28.45-46.27C153.56,290.8,144.17,323,144.86,347.7Z" style="fill:#37474f"></path><path d="M153.32,347c.52,17.68,7.32,39.37,22.35,39.37s21.83-25.06,20.26-47.55c-1.18-16.86-6.45-35.63-21.13-35.63C159.63,303.22,152.76,328,153.32,347Z" style="fill:#c7c7c7"></path><path d="M179.61,307c-.31,7.19-1.39,30.08-3,30.08-1.32,0-5.17-21.61-6.53-29.42a11.43,11.43,0,0,1,5.31-1.31A13.3,13.3,0,0,1,179.61,307Z" style="fill:#263238"></path><path d="M173.84,338.48c-.83.62-8.19-9.7-13.54-17.44a32.85,32.85,0,0,1,4.82-9C168.59,320.89,175,337.64,173.84,338.48Z" style="fill:#263238"></path><path d="M172.45,341.14c-.38.94-8.29-2.68-15.42-6.16a70,70,0,0,1,1.61-8.56C165.17,332.47,172.91,340,172.45,341.14Z" style="fill:#263238"></path><path d="M171.71,344.37c.07,1.08-7.94,2.6-15.21,3.76,0-.43,0-.84-.05-1.27-.08-2.3,0-4.68.12-7.1C163.85,341.26,171.62,343.16,171.71,344.37Z" style="fill:#263238"></path><path d="M158.76,363.11a71.17,71.17,0,0,1-1.84-9.78c7-3.24,15.12-6.73,15.73-5.61S164.85,357.23,158.76,363.11Z" style="fill:#263238"></path><path d="M167.41,379.56A27.47,27.47,0,0,1,161,369.7c4.48-7.65,12.15-20.33,13.34-19.52S169.36,372.83,167.41,379.56Z" style="fill:#263238"></path><path d="M183.1,381a11.14,11.14,0,0,1-6.68,2.24,11.85,11.85,0,0,1-2.76-.31c.24-6,1.34-30.91,3-30.91C177.93,352,181.68,372.85,183.1,381Z" style="fill:#263238"></path><path d="M191.76,366.46a37.56,37.56,0,0,1-4.07,9.44c-3.48-8.91-9.08-23.75-8-24.55C180.44,350.78,186.66,359.24,191.76,366.46Z" style="fill:#263238"></path><path d="M194.17,353.33a73.76,73.76,0,0,1-1.12,7.83c-5.7-5.38-11.55-11.26-11.14-12.3C182.23,348,188.11,350.51,194.17,353.33Z" style="fill:#263238"></path><path d="M194.45,341.74c.1,2.42.11,4.86,0,7.28-6-1.27-11.67-2.74-11.74-3.79S188.39,342.93,194.45,341.74Z" style="fill:#263238"></path><path d="M194.14,337.13c-5.85,2.78-11.71,5.25-12.22,4.28s5.56-7.66,10.93-13.27A81.4,81.4,0,0,1,194.14,337.13Z" style="fill:#263238"></path><path d="M191.17,321.62s0,0,0,0c-4.33,7.48-10.41,17.54-11.47,16.81s3.71-19.53,5.82-27.4A29.22,29.22,0,0,1,191.17,321.62Z" style="fill:#263238"></path><path d="M551.93,347.7c.63,23,9.75,51.12,30.09,51.12,2,0,29.22.52,31-.07,16.39-5.44,26.1-35.33,24.26-61.68-1.44-20.52-8-43.51-25.1-46.27-1.14-.18-29.78,0-31,0C560.63,290.8,551.25,323,551.93,347.7Z" style="fill:#263238"></path><path d="M584.57,347.7c.63,23,9.75,51.12,30.08,51.12s29.64-32.54,27.6-61.75c-1.54-21.89-8.6-46.27-28.45-46.27C593.27,290.8,583.88,323,584.57,347.7Z" style="fill:#37474f"></path><path d="M593,347c.52,17.68,7.32,39.37,22.35,39.37s21.83-25.06,20.26-47.55c-1.18-16.86-6.45-35.63-21.13-35.63C599.34,303.22,592.47,328,593,347Z" style="fill:#c7c7c7"></path><path d="M619.32,307c-.31,7.19-1.39,30.08-3,30.08-1.32,0-5.17-21.61-6.53-29.42a11.44,11.44,0,0,1,5.32-1.31A13.28,13.28,0,0,1,619.32,307Z" style="fill:#263238"></path><path d="M613.55,338.48c-.83.62-8.19-9.7-13.54-17.44a33.12,33.12,0,0,1,4.82-9C608.3,320.89,614.68,337.64,613.55,338.48Z" style="fill:#263238"></path><path d="M612.16,341.14c-.37.94-8.29-2.68-15.42-6.16a70,70,0,0,1,1.61-8.56C604.88,332.47,612.62,340,612.16,341.14Z" style="fill:#263238"></path><path d="M611.42,344.37c.07,1.08-7.94,2.6-15.21,3.76,0-.43,0-.84-.05-1.27-.08-2.3,0-4.68.12-7.1C603.56,341.26,611.33,343.16,611.42,344.37Z" style="fill:#263238"></path><path d="M598.47,363.11a71.17,71.17,0,0,1-1.84-9.78c7-3.24,15.12-6.73,15.73-5.61S604.56,357.23,598.47,363.11Z" style="fill:#263238"></path><path d="M607.12,379.56a27.47,27.47,0,0,1-6.44-9.86c4.48-7.65,12.15-20.33,13.34-19.52S609.07,372.83,607.12,379.56Z" style="fill:#263238"></path><path d="M622.81,381a11.14,11.14,0,0,1-6.68,2.24,11.85,11.85,0,0,1-2.76-.31c.24-6,1.34-30.91,3-30.91C617.64,352,621.39,372.85,622.81,381Z" style="fill:#263238"></path><path d="M631.47,366.46a37.56,37.56,0,0,1-4.07,9.44c-3.48-8.91-9.08-23.75-8-24.55C620.16,350.78,626.37,359.24,631.47,366.46Z" style="fill:#263238"></path><path d="M633.88,353.33a71.27,71.27,0,0,1-1.12,7.83c-5.7-5.38-11.55-11.26-11.14-12.3C621.94,348,627.82,350.51,633.88,353.33Z" style="fill:#263238"></path><path d="M634.16,341.74c.1,2.42.11,4.86,0,7.28-6-1.27-11.67-2.74-11.74-3.79S628.1,342.93,634.16,341.74Z" style="fill:#263238"></path><path d="M633.85,337.13c-5.85,2.78-11.71,5.25-12.22,4.28s5.56-7.66,10.93-13.27A81.4,81.4,0,0,1,633.85,337.13Z" style="fill:#263238"></path><path d="M630.88,321.62s0,0,0,0c-4.33,7.48-10.41,17.54-11.47,16.81s3.71-19.53,5.82-27.4A29.22,29.22,0,0,1,630.88,321.62Z" style="fill:#263238"></path><path d="M433.06,381.91H570.17s12.53-20.4,13.24-23.63-2.39-68.19,31.17-68.19c29.24,0,27.94,65.22,27.94,65.22l3.58-5.48.81-9.53-2.28-5.64s4.29-40,2.28-45.51-19.87-28.59-21.08-29.8-20.94-4.57-22.28-5.77S547,206.86,522.47,201.49s-78.18-9.66-112.61-9.66-113.19,9.3-119.63,11.45-65.51,57.63-65.51,57.63-63,8.1-71.42,10-40.54,23.23-41.88,25.91-5.51,32.62-5.51,32.62-3.22,7.39-3.35,9.13,3.89,30.21,4.43,31.68,6.44,8.19,7.78,8.73,224.92,3.49,227.66,3,15.63-4.29,17.78-5.73S366.5,290.8,405,290.8C438.43,290.8,435.75,354.93,433.06,381.91Z" style="fill:#FFC100"></path><path d="M246,381.06c-61.74-.78-130.48-1.81-131.23-2.1-1.34-.54-7.25-7.25-7.78-8.72s-4.57-29.94-4.42-31.68,3.34-9.14,3.34-9.14,4.16-29.94,5.5-32.62,33.43-24,41.89-25.9,71.42-10,71.42-10-57,12.75-60,15.3-25,26.6-27.56,30.17-2.94,30.6-3.75,32.83-6.18,16.21-6.72,18.62,1.88,12.09,2.68,12.88S240.82,380.64,246,381.06Z" style="opacity:0.1"></path><path d="M433.05,381.91c2.46-24.49,4.88-79.59-19.71-89.54,12.56,2.28,30.1,22.87,30.82,76.66l126,12.88Z" style="opacity:0.1"></path><g style="opacity:0.6000000000000001"><path d="M566.94,347.14a152.63,152.63,0,0,1,8.3-38.12,87.34,87.34,0,0,1,3.86-9,64.79,64.79,0,0,1,5-8.47,42.91,42.91,0,0,1,6.45-7.47,36.21,36.21,0,0,1,3.86-3.11,30.3,30.3,0,0,1,4.36-2.4,25.18,25.18,0,0,1,9.65-2.28,23.42,23.42,0,0,1,9.8,1.48c6.28,2.43,11.06,7.54,14.44,13.11a72.38,72.38,0,0,1,7.53,18.07,113.93,113.93,0,0,1,3.52,19.21,114.37,114.37,0,0,0-4.09-19.05,72.16,72.16,0,0,0-7.75-17.74C628.42,286,623.8,281,617.8,278.78a22.15,22.15,0,0,0-9.34-1.36,24.29,24.29,0,0,0-9.22,2.23,29.84,29.84,0,0,0-4.19,2.28,36.85,36.85,0,0,0-3.75,3,42,42,0,0,0-6.31,7.25,80.63,80.63,0,0,0-8.89,17.18A141.73,141.73,0,0,0,570.44,328,170.61,170.61,0,0,0,566.94,347.14Z" style="fill:#fff"></path><path d="M359,347.14a153,153,0,0,1,8-37.29,81.14,81.14,0,0,1,8.38-17.22,52.56,52.56,0,0,1,6.06-7.51,35.56,35.56,0,0,1,7.74-5.81,29.24,29.24,0,0,1,9.26-2.91,28.58,28.58,0,0,1,9.67.56c6.37,1.5,11.85,5.59,15.86,10.58a61.48,61.48,0,0,1,9.3,16.71,96.08,96.08,0,0,1,4.89,18.44,95.52,95.52,0,0,0-5.45-18.22,60.8,60.8,0,0,0-9.46-16.34c-4-4.78-9.29-8.71-15.4-10.1a27.51,27.51,0,0,0-9.27-.48,28.64,28.64,0,0,0-8.84,2.82,35.06,35.06,0,0,0-7.49,5.57,51,51,0,0,0-5.95,7.3,85.17,85.17,0,0,0-8.43,16.93,145.71,145.71,0,0,0-5.46,18.22A167.8,167.8,0,0,0,359,347.14Z" style="fill:#fff"></path><path d="M434.94,299.72c8.75-2.53,17.48-5.14,26.25-7.6h0l49-4.67,49-4.35h-.06l16-5.54,16.08-5.45-16,5.77-16,5.69h-.06l-49,4.64-49,4.34h0C452.54,295,443.73,297.32,434.94,299.72Z" style="fill:#fff"></path><path d="M231.71,260.94l-26.6,11.35-26.64,11.27.13-.11L168,303.36l-.26-.43c25.68.23,51.37.33,77,.67l-.18,0,30.6-18,0,0h0l38.14-11.35,38.17-11.22L313.5,274.69l-38.09,11.49.07,0L245,304.28l-.09.05h-.1c-25.68-.15-51.36-.54-77-.81h-.49l.23-.42,10.7-19.87,0-.08.08,0L205,272Z" style="fill:#fff"></path></g><g style="opacity:0.30000000000000004"><path d="M229.73,260.91l-53.68,12.76-6.7,1.64c-1.11.27-2.21.58-3.32.87l-.77.26a2,2,0,0,0-.37.14l-.29.25a11.79,11.79,0,0,0-1.15,1.18c-3,3.44-5.73,7.15-8.54,10.78-5.56,7.33-11,14.72-16.51,22.11,5.23-7.57,10.54-15.08,16-22.48,2.74-3.7,5.48-7.38,8.5-10.9a10,10,0,0,1,1.25-1.29l.37-.3a2.56,2.56,0,0,1,.43-.17l.86-.3c1.11-.3,2.23-.63,3.34-.9l6.7-1.68q13.42-3.17,26.89-6.17T229.73,260.91Z"></path><path d="M402.93,263.06l-16.33,5.15-16.36,5.06-32.66,10.27c-5.45,1.71-10.9,3.41-16.29,5.25a50.73,50.73,0,0,0-7.74,3.52l-7.64,3.87-15.26,7.75-15.32,7.64,15.14-8,15.21-7.88,7.6-3.93a49.64,49.64,0,0,1,7.79-3.61c5.4-1.89,10.83-3.64,16.27-5.38l32.74-10,16.4-4.92Z"></path><path d="M444.16,364.83l15.76-.34,15.77-.22,31.52-.48,31.53-.3,15.76-.24,3.94-.07,2-.07c.31,0,.68,0,.94-.07s.5-.34.74-.54c1.74-1.95,3.29-4.09,4.85-6.2-1.51,2.15-3,4.32-4.71,6.33-.24.21-.41.56-.79.62a7.64,7.64,0,0,1-1,.1l-2,.12-3.94.17-15.76.39-31.53.56-31.53.21-15.76.09Z"></path><path d="M554.68,259.23q2.49,12,4.86,24v.11l-3.15,19-3.23,19q-3.24,19-6.81,38c1.94-12.72,3.94-25.43,6.08-38.12l3.21-19,3.3-19v.1Q556.75,271.33,554.68,259.23Z"></path><path d="M467.7,260.82q-3,15.81-6.11,31.58v-.06q-.19,17.21-.53,34.41L460.69,344l-.51,17.2,0-17.21.15-17.21q.18-17.21.54-34.41v-.07Q464.2,276.52,467.7,260.82Z"></path><path d="M585.59,251.34c1.13,3.41,2.15,6.85,3.18,10.29s2,6.9,2.88,10.38l0,.09,0,.08c-.56,2.54-1.1,5.07-1.71,7.59s-1.2,5-1.87,7.55c.4-2.57.85-5.12,1.33-7.67s1-5.08,1.5-7.62v.18c-1-3.45-1.88-6.93-2.81-10.39S586.35,254.85,585.59,251.34Z"></path><polygon points="441.29 322.69 457.57 321.45 473.85 320.34 506.42 318.12 539 316.17 555.3 315.19 571.6 314.35 555.32 315.59 539.04 316.7 506.47 318.92 473.89 320.88 457.6 321.85 441.29 322.69"></polygon><path d="M534.14,264c.32,1.32.58,2.66.88,4l-.22-.17c2.54-.29,5.09-.6,7.64-.83s5.09-.49,7.65-.68l-.33.45-.77-3.68.35.25c-2.82.17-5.65.34-8.48.4,2.8-.42,5.61-.74,8.43-1.05l.28,0,.06.29.85,3.66.1.41-.43,0c-2.55.27-5.1.48-7.65.67s-5.11.35-7.67.51h-.19l0-.18C534.46,266.71,534.28,265.36,534.14,264Z"></path><path d="M120,318.52c-1,5.29-2.26,10.51-3.49,15.73l-.5,2-.12.48-.06.24c0,.12,0,0-.1,0,0,.29.05.67.07,1,.1,1.36.24,2.71.31,4.08.18,2.73.34,5.46.4,8.15-.4-2.66-.7-5.29-1-7.91-.15-1.3-.25-2.63-.37-3.94l-.09-1a1.24,1.24,0,0,1,0-.52l.06-.24.11-.5.46-2C117.06,328.86,118.39,323.65,120,318.52Z"></path><path d="M320.3,318.52c1.08,2.67,2,5.37,3,8.07s1.88,5.43,2.72,8.17l0,.07v.05c0,2.05,0,4.09-.11,6.13s-.14,4.09-.27,6.13c-.14-2-.22-4.08-.28-6.13s-.08-4.08-.1-6.13l0,.12c-.95-2.71-1.77-5.46-2.65-8.19S321,321.31,320.3,318.52Z"></path><path d="M102.63,339.76l15.17,15.08-.08,0L172,356.61c9,.29,18.08.67,27.12.89l27.14-.06,108.57.26h0l22.05-5.34-22,5.61h0l-108.58.26-27.14-.05c-9.05-.26-18.09-.67-27.13-1l-54.24-2.13h-.06l0,0Z"></path></g><path d="M481.57,258.77c1.79,1.83,72.49-2.33,74.1-2.51s28.64-5.37,29.89-6.62-43-33.11-46.72-34.73-44.7-4.29-50.34-2C484.09,214.69,479.51,256.66,481.57,258.77Z" style="fill:#263238"></path><path d="M486.16,256.83c1.64,1.67,66.23-2.13,67.7-2.29s26.17-4.91,27.31-6-39.24-30.26-42.68-31.73-40.84-3.93-46-1.84C488.47,216.55,484.28,254.9,486.16,256.83Z" style="fill:#37474f"></path><g style="opacity:0.1"><path d="M531,215.61l-44.76,27.52c.77-8.08,2.21-17.79,3.84-23.47l8.94-5.49A292.78,292.78,0,0,1,531,215.61Z" style="fill:#fff"></path><path d="M566.06,236.08l-31.85,19.59c-5.82.31-12.32.63-18.62.9l42.65-26.23C560.87,232.24,563.53,234.19,566.06,236.08Z" style="fill:#fff"></path><path d="M579.15,246.28l-7.82,4.81c-1.87.41-3.84.82-5.77,1.22l12-7.37C578.15,245.43,578.69,245.88,579.15,246.28Z" style="fill:#fff"></path></g><path d="M535.44,216.13c1.26.2,15.88,37.93,15.6,38.67s2.89.13,2.62-.06-16-36.58-15.54-38.11C538.36,215.82,535.44,216.13,535.44,216.13Z" style="fill:#263238"></path><path d="M229.73,260.91c1.79,0,168.83,2.15,173.2,2.15s64.63-2.91,65.37-3.31,6.64-44.16,4.85-47.73c-.49-1-81.44-5.16-91.37-5.16s-91.37,3.55-95.67,4.3S226.77,260.87,229.73,260.91Z" style="fill:#263238"></path><path d="M234.93,258.8c1.68,0,158.65,2,162.75,2s62.41-2.73,63.1-3.11,4.63-39.08,2.94-42.43c-.46-.92-78.2-4.85-87.53-4.85s-85.86,3.33-89.9,4S232.15,258.77,234.93,258.8Z" style="fill:#37474f"></path><path d="M353.67,211.15l-78.31,48.16c-14.44-.17-26.54-.33-33.64-.42l75-46.14C328.81,212.19,342.42,211.6,353.67,211.15Zm50.53.39L325.48,260l16.82.21,77.76-47.82Zm31,47.64c7.22-.35,14-.7,18.76-1l7.54-4.64c.36-2.84.81-6.89,1.22-11.3Zm8.58-45.51-76.1,46.8,3.71,0,75.83-46.63Zm-143.06-.14h0l-53.41,32.84c-2.93,2.64-5.55,5-7.62,7l65.17-40.07Z" style="fill:#fff;opacity:0.1"></path><path d="M295.78,304.59c-2.34,2.33,1.79,16.82,5.37,17.9s28.1-2.33,30.78-3.05,30.25-8.95,32.58-11.45,4.47-23.09,2-24.52-43.86,9.3-48.33,10.56S297.75,302.62,295.78,304.59Z" style="fill:#fff"></path><path d="M109.4,312c1,1.86,7.66,8.77,9,9.72s9.4,2.3,10.34,1.77,6-11.68,5.9-13.56S123.91,287.67,122,288.08s-12.08,6.71-12.62,8.72S108.37,310,109.4,312Z" style="fill:#fff"></path><path d="M110,311.37c-.1,1.34,3.46,5.49,3.89,6a37.73,37.73,0,0,1-4.49-5.36c-1-2-.55-13.21,0-15.21s10.74-8.33,12.61-8.74c-2,.91-10.17,7.56-10.61,9.21S110.11,309.94,110,311.37Z" style="fill:#dbdbdb"></path><path d="M138.4,310.9c2.36-.82,50.88-2.28,60.41-2.28s72.22,1.47,76.52,2.95-5.37,27-9.13,28.86-64.17,6.71-68.33,6.71-51.32-6.66-54.14-8.54S134.51,312.24,138.4,310.9Z" style="fill:#263238"></path><path d="M273.28,327.28c-.2.52-.39,1-.6,1.55L139,326.41c-.14-.52-.25-1.05-.37-1.59Z" style="fill:#FFC100"></path><path d="M144.84,369H271.17c2.68,0-11-8.18-13.17-8.32s-101.21,0-103.22,0S142.56,369,144.84,369Z" style="fill:#263238"></path><path d="M112.85,363.61c1.36.23,15.39.5,17.72,0s7.7-12.76,7.34-14.59-10.79-8-12.13-8.46-10.8-.94-11.81,0S111.59,363.41,112.85,363.61Z" style="fill:#455a64"></path><path d="M294.52,347.14c-1.67,2.17,9.85,15.26,14.23,16.87S340,365.67,341,365.4s1-13.74.49-15.8-5.55-9.57-6.66-10.24-25.2,1.38-28.46,2.23S295.28,346.16,294.52,347.14Z" style="fill:#455a64"></path><path d="M492.29,254.61l-.7-2.38s8.82-9.45,11.34-10.61,18,1.75,18.88,3.12.51,7.33.3,8.38-14,3.41-16.33,3.51S492.29,254.61,492.29,254.61Z" style="fill:#FFC100"></path><path d="M491.59,252.23l.7,2.38s-5.87,4.43-6.08,4.69.14,1.52.14,1.52h-6v-8.59a14.22,14.22,0,0,0,2.78,1.19C484,253.57,491.59,252.23,491.59,252.23Z" style="fill:#FFC100"></path></g></svg>